<svg width="52" height="53" viewBox="0 0 52 53" fill="none" xmlns="http://www.w3.org/2000/svg">
<path d="M2.00187 30.9174C2.51953 29.5014 3.24308 28.9177 5.00082 28.9177C6.06297 28.9177 7.12417 28.9225 8.18632 28.9168C9.24753 28.911 10.0444 29.3477 10.5656 30.315C10.6359 30.4452 10.8825 30.542 11.0465 30.541C12.314 30.54 13.5945 30.5027 14.7861 31.0045C15.6007 31.3474 16.4238 31.74 17.1278 32.2696C18.5162 33.3145 20.0143 33.8584 21.7411 33.8307C23.2232 33.8077 24.7129 33.777 26.1875 33.8987C28.5321 34.0931 30.3967 36.3446 30.2223 38.6392C30.2008 38.9227 30.1295 39.2024 30.0611 39.6017C30.5401 39.5174 31.0051 39.4944 31.4307 39.3508C36.2718 37.7189 41.1053 36.065 45.9426 34.4244C47.5823 33.869 49.1938 34.6131 49.7956 36.1837C49.8687 36.3743 49.9325 36.5677 50 36.7593V37.8127C49.6953 39.006 48.8853 39.7195 47.8813 40.3363C43.2024 43.2084 38.5433 46.1149 33.8888 49.0292C32.656 49.8011 31.3501 50.1842 29.8998 50.1803C23.4838 50.1621 17.0679 50.1698 10.6509 50.1842C10.4006 50.1842 10.1147 50.301 9.9075 50.4523C9.41721 50.8105 8.88754 50.9963 8.29225 50.9982C7.02762 51.002 5.76298 51.003 4.49834 50.9982C3.68743 50.9944 2.9909 50.708 2.50717 50.0271C1.6665 48.8163 2.16687 49.3386 2 49.0014V31.0045L2.00187 30.9174ZM10.8347 48.5408H11.3971C17.5685 48.5408 23.7398 48.5322 29.9102 48.5484C31.0576 48.5513 32.0851 48.2487 33.0572 47.6377C35.8349 45.8899 38.6257 44.1641 41.4119 42.4307C43.4912 41.1369 45.578 39.8545 47.6498 38.5473C48.6622 37.9085 48.6454 36.5371 47.6413 36.0142C47.1876 35.7786 46.7367 35.8686 46.2792 36.0247C41.8862 37.5254 37.483 38.9974 33.1022 40.5335C31.7963 40.9913 30.4961 41.2288 29.1161 41.1896C27.274 41.1369 25.4291 41.1666 23.586 41.1838C23.0892 41.1886 22.5895 41.248 22.0983 41.3294C21.0408 41.5056 20.1446 42.0524 19.2718 42.6548C18.864 42.9364 18.4047 42.8406 18.1506 42.4757C17.8975 42.1118 17.9706 41.6186 18.3522 41.3342C19.569 40.4282 20.8908 39.7205 22.4142 39.6362C24.1429 39.5404 25.8791 39.5663 27.6115 39.5452C28.3174 39.5366 28.4937 39.3929 28.6174 38.6747C28.6361 38.5655 28.6408 38.4525 28.6436 38.3404C28.6774 37.0035 27.409 35.6129 25.9531 35.5152C24.6932 35.43 23.422 35.4223 22.1592 35.4702C19.8624 35.5564 17.8347 34.9138 16.017 33.4533C14.5067 32.2399 12.7086 32.0771 10.8337 32.215V48.5389L10.8347 48.5408ZM3.59931 39.9244C3.59931 42.7343 3.59744 45.5432 3.60025 48.3531C3.60025 49.0522 3.88149 49.351 4.56396 49.3567C5.78266 49.3673 7.00137 49.3673 8.22007 49.3567C8.92504 49.351 9.20628 49.0531 9.20628 48.3234C9.20909 42.7525 9.20816 37.1807 9.20628 31.6098C9.20628 30.8369 8.91848 30.5535 8.14413 30.5515C7.00324 30.5477 5.86329 30.5496 4.72239 30.5515C3.8543 30.5525 3.59838 30.8111 3.59838 31.6874C3.59838 34.4331 3.59931 37.1788 3.59931 39.9244Z" fill="#89C1EC"/>
<path d="M12.8841 15.4646C12.8841 14.6669 12.8766 13.8682 12.8859 13.0704C12.8972 12.0993 13.5553 11.4175 14.5078 11.3954C15.179 11.3801 15.8511 11.383 16.5233 11.3954C16.7661 11.4002 16.902 11.3408 17.0258 11.0947C17.338 10.4722 17.7148 9.88419 18.0373 9.26648C18.1076 9.13241 18.1236 8.9016 18.057 8.77232C17.7458 8.16514 17.3923 7.58191 17.0642 6.98335C16.558 6.05822 16.8017 5.14842 17.7036 4.61211C19.0123 3.83447 20.3228 3.06066 21.6381 2.2945C22.5803 1.74575 23.4483 1.98134 23.9977 2.92658C24.3249 3.48874 24.653 4.05091 24.953 4.62744C25.0852 4.88122 25.2361 4.92815 25.5089 4.91283C26.1623 4.87739 26.8204 4.88027 27.4738 4.91474C27.7297 4.92815 27.8694 4.88122 27.9932 4.64659C28.296 4.07102 28.6231 3.50885 28.9475 2.94478C29.4959 1.98996 30.365 1.74 31.2977 2.28301C32.5999 3.03959 33.8982 3.80382 35.1919 4.57572C36.1941 5.17332 36.4153 6.05535 35.8388 7.08774C35.5294 7.64128 35.1994 8.18429 34.9154 8.75125C34.8451 8.89203 34.8601 9.13911 34.9341 9.28372C35.2529 9.90335 35.625 10.4942 35.9419 11.1139C36.0553 11.3361 36.18 11.4002 36.4088 11.3954C37.065 11.382 37.7212 11.3839 38.3774 11.3926C39.4143 11.406 40.0696 12.0773 40.0733 13.1394C40.0799 14.7033 40.0799 16.2681 40.0733 17.8321C40.0696 18.8779 39.4321 19.5387 38.4131 19.5569C37.7568 19.5693 37.1006 19.5683 36.4444 19.5559C36.1997 19.5511 36.0591 19.6191 35.9363 19.8604C35.6204 20.481 35.2444 21.07 34.9266 21.6896C34.8526 21.8333 34.8479 22.0823 34.9201 22.225C35.2126 22.8053 35.5529 23.3608 35.8669 23.9306C36.3994 24.896 36.1838 25.7885 35.2594 26.344C33.9282 27.1446 32.5905 27.9347 31.2443 28.7105C30.3865 29.2046 29.4959 28.9451 28.9869 28.0784C28.6578 27.5181 28.3269 26.9569 28.0335 26.3766C27.8854 26.0845 27.7035 26.027 27.4026 26.0423C26.7801 26.073 26.1548 26.0701 25.5323 26.0414C25.2492 26.028 25.0786 26.0845 24.938 26.3564C24.6408 26.9349 24.3127 27.4971 23.9836 28.0583C23.4596 28.9527 22.5737 29.2094 21.6925 28.6999C20.3341 27.9146 18.9832 27.1159 17.6379 26.3086C16.8139 25.8144 16.573 24.8941 17.0323 24.035C17.3539 23.4336 17.6951 22.8417 18.0411 22.2547C18.1667 22.0421 18.1836 21.8879 18.0373 21.6571C17.6736 21.0834 17.3342 20.4906 17.0314 19.8815C16.9011 19.6191 16.7511 19.5492 16.4896 19.5549C15.8493 19.5683 15.208 19.5664 14.5678 19.5569C13.5169 19.5406 12.8897 18.8884 12.8831 17.8091C12.8784 17.0266 12.8831 16.2452 12.8831 15.4627L12.8841 15.4646ZM22.5578 27.3256C23.0255 26.4963 23.4671 25.711 23.9115 24.9257C24.2424 24.3415 24.4439 24.2993 25.1011 24.3443C25.9842 24.4056 26.8776 24.4277 27.7597 24.3635C28.5772 24.3041 28.6991 24.306 29.1162 25.0435C29.5428 25.7972 29.9703 26.5509 30.409 27.3247C31.8199 26.4915 33.1801 25.688 34.5573 24.8739C34.0754 24.0226 33.6226 23.2037 33.152 22.3974C32.9017 21.9683 32.9814 21.6207 33.2401 21.2089C33.7689 20.369 34.2676 19.5042 34.7073 18.6135C34.9351 18.1519 35.2116 17.9154 35.7094 17.923C36.256 17.9317 36.8034 17.925 37.35 17.925C37.7175 17.925 38.0849 17.925 38.4421 17.925V13.0235C37.5468 13.0235 36.6881 13.0235 35.8304 13.0235C35.0794 13.0235 34.9923 12.9076 34.667 12.2401C34.2657 11.4175 33.8139 10.614 33.318 9.84684C32.9139 9.22147 32.8605 9.09314 33.2355 8.42563C33.6686 7.65469 34.1035 6.88375 34.5498 6.09079C33.153 5.26526 31.7936 4.46176 30.4015 3.6391C29.9197 4.49336 29.4575 5.30356 29.0056 6.11952C28.7788 6.52845 28.4666 6.66157 27.9979 6.63188C27.0988 6.57442 26.1914 6.53898 25.2933 6.59549C24.3267 6.65678 24.2658 6.67402 23.7699 5.79486C23.3677 5.08234 22.9656 4.36982 22.554 3.64102C21.1394 4.47612 19.781 5.27675 18.4029 6.08983C18.8726 6.92206 19.3179 7.70737 19.7594 8.49363C20.0819 9.06824 20.0219 9.25499 19.6788 9.798C19.1651 10.6101 18.6804 11.4481 18.2614 12.3139C18.0298 12.7917 17.7664 13.0417 17.2358 13.0292C16.3339 13.0072 15.4321 13.0235 14.5059 13.0235V17.925C15.433 17.925 16.3349 17.9307 17.2367 17.9221C17.7317 17.9173 18.0176 18.1404 18.2473 18.603C18.6888 19.4936 19.181 20.3623 19.7116 21.2002C19.9844 21.6312 20.0472 21.9894 19.7885 22.4318C19.3235 23.2248 18.881 24.0312 18.4067 24.8711C19.7791 25.6832 21.1403 26.4867 22.5578 27.3256Z" fill="#89C1EC"/>
<path d="M26.4949 19.5587C24.2928 19.5683 22.4995 17.7612 22.477 15.5087C22.4545 13.2821 24.2544 11.4146 26.4415 11.3954C28.6511 11.3762 30.4773 13.2198 30.4838 15.479C30.4904 17.7209 28.7027 19.5501 26.4959 19.5597L26.4949 19.5587ZM26.463 17.923C27.8008 17.9307 28.8855 16.8312 28.8798 15.4732C28.8742 14.1373 27.8017 13.0369 26.4959 13.0273C25.175 13.0177 24.0735 14.1382 24.0781 15.4886C24.0828 16.8284 25.1478 17.9163 26.463 17.923Z" fill="#89C1EC"/>
<path d="M2.00187 30.9174C2.51953 29.5014 3.24308 28.9177 5.00082 28.9177C6.06297 28.9177 7.12417 28.9225 8.18632 28.9168C9.24753 28.911 10.0444 29.3477 10.5656 30.315C10.6359 30.4452 10.8825 30.542 11.0465 30.541C12.314 30.54 13.5945 30.5027 14.7861 31.0045C15.6007 31.3474 16.4238 31.74 17.1278 32.2696C18.5162 33.3145 20.0143 33.8584 21.7411 33.8307C23.2232 33.8077 24.7129 33.777 26.1875 33.8987C28.5321 34.0931 30.3967 36.3446 30.2223 38.6392C30.2008 38.9227 30.1295 39.2024 30.0611 39.6017C30.5401 39.5174 31.0051 39.4944 31.4307 39.3508C36.2718 37.7189 41.1053 36.065 45.9426 34.4244C47.5823 33.869 49.1938 34.6131 49.7956 36.1837C49.8687 36.3743 49.9325 36.5677 50 36.7593V37.8127C49.6953 39.006 48.8853 39.7195 47.8813 40.3363C43.2024 43.2084 38.5433 46.1149 33.8888 49.0292C32.656 49.8011 31.3501 50.1842 29.8998 50.1803C23.4838 50.1621 17.0679 50.1698 10.6509 50.1842C10.4006 50.1842 10.1147 50.301 9.9075 50.4523C9.41721 50.8105 8.88754 50.9963 8.29225 50.9982C7.02762 51.002 5.76298 51.003 4.49834 50.9982C3.68743 50.9944 2.9909 50.708 2.50717 50.0271C1.6665 48.8163 2.16687 49.3386 2 49.0014V31.0045L2.00187 30.9174ZM10.8347 48.5408H11.3971C17.5685 48.5408 23.7398 48.5322 29.9102 48.5484C31.0576 48.5513 32.0851 48.2487 33.0572 47.6377C35.8349 45.8899 38.6257 44.1641 41.4119 42.4307C43.4912 41.1369 45.578 39.8545 47.6498 38.5473C48.6622 37.9085 48.6454 36.5371 47.6413 36.0142C47.1876 35.7786 46.7367 35.8686 46.2792 36.0247C41.8862 37.5254 37.483 38.9974 33.1022 40.5335C31.7963 40.9913 30.4961 41.2288 29.1161 41.1896C27.274 41.1369 25.4291 41.1666 23.586 41.1838C23.0892 41.1886 22.5895 41.248 22.0983 41.3294C21.0408 41.5056 20.1446 42.0524 19.2718 42.6548C18.864 42.9364 18.4047 42.8406 18.1506 42.4757C17.8975 42.1118 17.9706 41.6186 18.3522 41.3342C19.569 40.4282 20.8908 39.7205 22.4142 39.6362C24.1429 39.5404 25.8791 39.5663 27.6115 39.5452C28.3174 39.5366 28.4937 39.3929 28.6174 38.6747C28.6361 38.5655 28.6408 38.4525 28.6436 38.3404C28.6774 37.0035 27.409 35.6129 25.9531 35.5152C24.6932 35.43 23.422 35.4223 22.1592 35.4702C19.8624 35.5564 17.8347 34.9138 16.017 33.4533C14.5067 32.2399 12.7086 32.0771 10.8337 32.215V48.5389L10.8347 48.5408ZM3.59931 39.9244C3.59931 42.7343 3.59744 45.5432 3.60025 48.3531C3.60025 49.0522 3.88149 49.351 4.56396 49.3567C5.78266 49.3673 7.00137 49.3673 8.22007 49.3567C8.92504 49.351 9.20628 49.0531 9.20628 48.3234C9.20909 42.7525 9.20816 37.1807 9.20628 31.6098C9.20628 30.8369 8.91848 30.5535 8.14413 30.5515C7.00324 30.5477 5.86329 30.5496 4.72239 30.5515C3.8543 30.5525 3.59838 30.8111 3.59838 31.6874C3.59838 34.4331 3.59931 37.1788 3.59931 39.9244Z" stroke="#89C1EC" stroke-width="2.4"/>
<path d="M12.8841 15.4646C12.8841 14.6669 12.8766 13.8682 12.8859 13.0704C12.8972 12.0993 13.5553 11.4175 14.5078 11.3954C15.179 11.3801 15.8511 11.383 16.5233 11.3954C16.7661 11.4002 16.902 11.3408 17.0258 11.0947C17.338 10.4722 17.7148 9.88419 18.0373 9.26648C18.1076 9.13241 18.1236 8.9016 18.057 8.77232C17.7458 8.16514 17.3923 7.58191 17.0642 6.98335C16.558 6.05822 16.8017 5.14842 17.7036 4.61211C19.0123 3.83447 20.3228 3.06066 21.6381 2.2945C22.5803 1.74575 23.4483 1.98134 23.9977 2.92658C24.3249 3.48874 24.653 4.05091 24.953 4.62744C25.0852 4.88122 25.2361 4.92815 25.5089 4.91283C26.1623 4.87739 26.8204 4.88027 27.4738 4.91474C27.7297 4.92815 27.8694 4.88122 27.9932 4.64659C28.296 4.07102 28.6231 3.50885 28.9475 2.94478C29.4959 1.98996 30.365 1.74 31.2977 2.28301C32.5999 3.03959 33.8982 3.80382 35.1919 4.57572C36.1941 5.17332 36.4153 6.05535 35.8388 7.08774C35.5294 7.64128 35.1994 8.18429 34.9154 8.75125C34.8451 8.89203 34.8601 9.13911 34.9341 9.28372C35.2529 9.90335 35.625 10.4942 35.9419 11.1139C36.0553 11.3361 36.18 11.4002 36.4088 11.3954C37.065 11.382 37.7212 11.3839 38.3774 11.3926C39.4143 11.406 40.0696 12.0773 40.0733 13.1394C40.0799 14.7033 40.0799 16.2681 40.0733 17.8321C40.0696 18.8779 39.4321 19.5387 38.4131 19.5569C37.7568 19.5693 37.1006 19.5683 36.4444 19.5559C36.1997 19.5511 36.0591 19.6191 35.9363 19.8604C35.6204 20.481 35.2444 21.07 34.9266 21.6896C34.8526 21.8333 34.8479 22.0823 34.9201 22.225C35.2126 22.8053 35.5529 23.3608 35.8669 23.9306C36.3994 24.896 36.1838 25.7885 35.2594 26.344C33.9282 27.1446 32.5905 27.9347 31.2443 28.7105C30.3865 29.2046 29.4959 28.9451 28.9869 28.0784C28.6578 27.5181 28.3269 26.9569 28.0335 26.3766C27.8854 26.0845 27.7035 26.027 27.4026 26.0423C26.7801 26.073 26.1548 26.0701 25.5323 26.0414C25.2492 26.028 25.0786 26.0845 24.938 26.3564C24.6408 26.9349 24.3127 27.4971 23.9836 28.0583C23.4596 28.9527 22.5737 29.2094 21.6925 28.6999C20.3341 27.9146 18.9832 27.1159 17.6379 26.3086C16.8139 25.8144 16.573 24.8941 17.0323 24.035C17.3539 23.4336 17.6951 22.8417 18.0411 22.2547C18.1667 22.0421 18.1836 21.8879 18.0373 21.6571C17.6736 21.0834 17.3342 20.4906 17.0314 19.8815C16.9011 19.6191 16.7511 19.5492 16.4896 19.5549C15.8493 19.5683 15.208 19.5664 14.5678 19.5569C13.5169 19.5406 12.8897 18.8884 12.8831 17.8091C12.8784 17.0266 12.8831 16.2452 12.8831 15.4627L12.8841 15.4646ZM22.5578 27.3256C23.0255 26.4963 23.4671 25.711 23.9115 24.9257C24.2424 24.3415 24.4439 24.2993 25.1011 24.3443C25.9842 24.4056 26.8776 24.4277 27.7597 24.3635C28.5772 24.3041 28.6991 24.306 29.1162 25.0435C29.5428 25.7972 29.9703 26.5509 30.409 27.3247C31.8199 26.4915 33.1801 25.688 34.5573 24.8739C34.0754 24.0226 33.6226 23.2037 33.152 22.3974C32.9017 21.9683 32.9814 21.6207 33.2401 21.2089C33.7689 20.369 34.2676 19.5042 34.7073 18.6135C34.9351 18.1519 35.2116 17.9154 35.7094 17.923C36.256 17.9317 36.8034 17.925 37.35 17.925C37.7175 17.925 38.0849 17.925 38.4421 17.925V13.0235C37.5468 13.0235 36.6881 13.0235 35.8304 13.0235C35.0794 13.0235 34.9923 12.9076 34.667 12.2401C34.2657 11.4175 33.8139 10.614 33.318 9.84684C32.9139 9.22147 32.8605 9.09314 33.2355 8.42563C33.6686 7.65469 34.1035 6.88375 34.5498 6.09079C33.153 5.26526 31.7936 4.46176 30.4015 3.6391C29.9197 4.49336 29.4575 5.30356 29.0056 6.11952C28.7788 6.52845 28.4666 6.66157 27.9979 6.63188C27.0988 6.57442 26.1914 6.53898 25.2933 6.59549C24.3267 6.65678 24.2658 6.67402 23.7699 5.79486C23.3677 5.08234 22.9656 4.36982 22.554 3.64102C21.1394 4.47612 19.781 5.27675 18.4029 6.08983C18.8726 6.92206 19.3179 7.70737 19.7594 8.49363C20.0819 9.06824 20.0219 9.25499 19.6788 9.798C19.1651 10.6101 18.6804 11.4481 18.2614 12.3139C18.0298 12.7917 17.7664 13.0417 17.2358 13.0292C16.3339 13.0072 15.4321 13.0235 14.5059 13.0235V17.925C15.433 17.925 16.3349 17.9307 17.2367 17.9221C17.7317 17.9173 18.0176 18.1404 18.2473 18.603C18.6888 19.4936 19.181 20.3623 19.7116 21.2002C19.9844 21.6312 20.0472 21.9894 19.7885 22.4318C19.3235 23.2248 18.881 24.0312 18.4067 24.8711C19.7791 25.6832 21.1403 26.4867 22.5578 27.3256Z" stroke="#89C1EC" stroke-width="2.4"/>
<path d="M26.4949 19.5587C24.2928 19.5683 22.4995 17.7612 22.477 15.5087C22.4545 13.2821 24.2544 11.4146 26.4415 11.3954C28.6511 11.3762 30.4773 13.2198 30.4838 15.479C30.4904 17.7209 28.7027 19.5501 26.4959 19.5597L26.4949 19.5587ZM26.463 17.923C27.8008 17.9307 28.8855 16.8312 28.8798 15.4732C28.8742 14.1373 27.8017 13.0369 26.4959 13.0273C25.175 13.0177 24.0735 14.1382 24.0781 15.4886C24.0828 16.8284 25.1478 17.9163 26.463 17.923Z" stroke="#89C1EC" stroke-width="2.4"/>
</svg>
