<svg width="69" height="47" viewBox="0 0 69 47" fill="none" xmlns="http://www.w3.org/2000/svg">
<path d="M58.9173 23.3516L65.7151 19.9527C65.9765 19.822 66.2091 19.6406 66.3996 19.419C66.5901 19.1975 66.7345 18.9402 66.8245 18.6622C66.9144 18.3842 66.9481 18.0911 66.9235 17.7999C66.899 17.5088 66.8167 17.2254 66.6814 16.9664L59.9179 4.01387C59.6509 3.50257 59.1938 3.11656 58.645 2.93897C58.0962 2.76139 57.4996 2.80642 56.9837 3.06438L50.1167 6.49789M58.9173 23.3516L50.1167 6.49789M58.9173 23.3516L54.517 28.4994M50.1167 6.49789L38.9272 6.49788C38.6383 6.49788 38.3522 6.55479 38.0853 6.66536C37.8183 6.77592 37.5758 6.93799 37.3715 7.14229L26.6088 17.905C26.3859 18.1279 26.2135 18.3961 26.1033 18.6914C25.993 18.9867 25.9476 19.3023 25.9699 19.6167C25.9922 19.9311 26.0819 20.2371 26.2328 20.5138C26.3837 20.7906 26.5923 21.0317 26.8444 21.2209L28.3352 22.339C29.8586 23.4815 31.7114 24.0991 33.6156 24.0991C35.5198 24.0991 37.3726 23.4815 38.8959 22.339L42.4162 19.6988L54.517 28.4994M54.517 28.4994L44.3971 38.6193C44.1285 38.8879 43.7948 39.0824 43.4287 39.1838C43.0625 39.2853 42.6763 39.2901 42.3077 39.198L26.3685 35.2132C26.0696 35.1384 25.7896 35.0017 25.5469 34.8119L10.514 23.0568M10.514 23.0568L3.71621 19.6579C3.45488 19.5273 3.22218 19.3458 3.03172 19.1243C2.84125 18.9027 2.69682 18.6454 2.60687 18.3674C2.51691 18.0894 2.48323 17.7963 2.50778 17.5052C2.53234 17.214 2.61464 16.9307 2.74988 16.6717L9.51339 3.71911C9.78038 3.2078 10.2375 2.8218 10.7863 2.64421C11.3351 2.46662 11.9317 2.51165 12.4476 2.76961L19.3146 6.20312L10.514 23.0568ZM30.3154 45.0005L22.0265 42.9283C21.6901 42.8442 21.3784 42.6818 21.1167 42.4543L14.9143 37.063M19.4726 6.20312L33.5865 2.08842C34.0907 1.94143 34.6308 1.97964 35.1093 2.19614L44.6163 6.49788" stroke="url(#paint0_linear_1223_23451)" stroke-width="4" stroke-linecap="round" stroke-linejoin="round"/>
<defs>
<linearGradient id="paint0_linear_1223_23451" x1="34.7157" y1="2.00049" x2="34.7157" y2="45.0005" gradientUnits="userSpaceOnUse">
<stop stop-color="#89C1EC"/>
<stop offset="1" stop-color="#71A6DB"/>
</linearGradient>
</defs>
</svg>
