<svg width="29" height="30" viewBox="0 0 29 30" fill="none" xmlns="http://www.w3.org/2000/svg">
<path d="M7.02787 26.537C6.45154 26.4981 5.8609 26.5277 5.30065 26.4071C4.08007 26.1437 3.25444 25.0574 3.22763 23.7661C3.21066 22.9544 3.22674 22.1427 3.22048 21.3301C3.21423 20.5267 2.97923 19.8115 2.47527 19.1881C1.85872 18.4246 1.26005 17.6454 0.658695 16.8689C-0.211616 15.7455 -0.221446 14.2752 0.640823 13.1527C1.2529 12.3559 1.87034 11.5627 2.4985 10.7788C2.97655 10.1824 3.20529 9.49682 3.2178 8.73242C3.23031 7.9671 3.2178 7.20178 3.22138 6.43554C3.23031 4.68875 4.35796 3.51433 6.03068 3.49671C6.92154 3.48743 7.81419 3.50135 8.70237 3.44105C9.32785 3.3993 9.86934 3.09317 10.3295 2.63584C10.9577 2.01059 11.5983 1.39834 12.2354 0.782372C13.2836 -0.229706 14.8687 -0.264957 15.9544 0.706304C16.6728 1.34917 17.3894 1.9939 18.0926 2.65532C18.7029 3.22954 19.4177 3.48929 20.2273 3.49578C20.952 3.50134 21.6766 3.49207 22.4013 3.49856C24.0365 3.51248 25.1686 4.68968 25.1874 6.39101C25.1972 7.24909 25.1748 8.10811 25.2258 8.96341C25.266 9.63875 25.5555 10.225 25.9987 10.7343C26.6188 11.4477 27.2228 12.1778 27.8287 12.906C28.8187 14.098 28.8187 15.9329 27.8305 17.1166C27.2675 17.791 26.7073 18.4682 26.1318 19.1296C25.5877 19.7549 25.3419 20.4896 25.3339 21.3189C25.3267 22.0611 25.3366 22.8032 25.3312 23.5462C25.3196 25.3171 24.1991 26.4869 22.5023 26.5008C21.7892 26.5064 21.0753 26.4981 20.3613 26.5027C19.5634 26.5083 18.8566 26.7624 18.2535 27.3255C17.5485 27.9842 16.8354 28.6335 16.1143 29.2727C15.0135 30.2495 13.5105 30.2402 12.4186 29.2578C11.71 28.6205 11.0015 27.9832 10.3063 27.3311C9.70404 26.7661 8.99814 26.5138 8.2002 26.5027C7.80972 26.4971 7.42014 26.5018 7.02966 26.5018C7.02966 26.5138 7.02787 26.525 7.02787 26.537ZM11.1292 13.0377C11.1051 13.0303 11.0819 13.0238 11.0578 13.0164C11.0578 12.7863 11.0676 12.5553 11.056 12.3253C11.0149 11.5395 10.6405 11.1304 9.88721 11.0868C9.45474 11.0618 9.0169 11.0636 8.58442 11.0952C7.94107 11.1425 7.57561 11.5405 7.51664 12.2112C7.50324 12.3614 7.50324 12.5126 7.50324 12.6629C7.50324 14.9589 7.50324 17.2558 7.50324 19.5517C7.50324 19.7141 7.50324 19.8773 7.51932 20.0378C7.58366 20.6788 7.92678 21.0508 8.54332 21.1241C8.84087 21.1594 9.14378 21.1659 9.44401 21.1621C10.4403 21.151 10.7513 20.8839 10.9595 19.8551C11.6252 20.3616 12.2899 20.844 12.9288 21.3616C13.3738 21.7215 13.8679 21.8848 14.4157 21.8913C15.3521 21.9015 16.2886 21.9163 17.225 21.8885C18.0479 21.8644 18.6645 21.434 19.0568 20.689C19.1827 20.4497 19.2319 20.1658 19.3159 19.9024C19.8466 18.2437 20.3819 16.5869 20.9055 14.9264C21.2111 13.9561 20.8465 13.3123 19.8029 13.0377C19.6331 12.9932 19.4499 12.9913 19.2721 12.9904C18.4027 12.9857 17.5333 12.9904 16.6638 12.9867C16.2358 12.9848 16.0813 12.8243 16.0705 12.38C16.067 12.2297 16.0768 12.0785 16.0947 11.9291C16.1715 11.2853 16.2555 10.6425 16.3341 9.99868C16.4306 9.20368 16.0625 8.52463 15.3995 8.26581C14.8482 8.05059 14.0753 8.366 13.691 8.97176C13.2246 9.70647 12.7626 10.4449 12.2989 11.1824C11.9093 11.8011 11.5188 12.4189 11.1292 13.0377Z" fill="#181D29"/>
</svg>
