<svg width="60" height="40" viewBox="0 0 60 40" fill="none" xmlns="http://www.w3.org/2000/svg">
<g clip-path="url(#clip0_1223_23022)">
<path d="M0 0H60V40H0V0Z" fill="#D80027"/>
<path d="M26.528 27.9766L25.3935 26.152L23.2999 26.6666L24.6917 25.0175L23.5572 23.1929L25.5572 23.9999L26.9373 22.3508L26.7853 24.5029L28.7853 25.3099L26.6917 25.8245L26.528 27.9766ZM33.99 9.59059L32.8087 11.3918L34.1654 13.0643L32.0952 12.5029L30.9139 14.3157L30.797 12.1637L28.7268 11.6023L30.7385 10.8304L30.6215 8.67831L31.9783 10.3508L33.99 9.59059ZM27.6274 2.9707L27.3935 5.11105L29.3584 5.99994L27.2531 6.44439L27.0192 8.58474L25.9432 6.71339L23.8496 7.15784L25.2882 5.5555L24.2122 3.69585L26.1771 4.57304L27.6274 2.9707ZM34.2473 18.9239L32.5046 20.1988L33.1829 22.2456L31.4402 20.9824L29.6976 22.2689L30.3525 20.2105L28.6098 18.959L30.7619 18.9473L31.4169 16.8888L32.0952 18.9356L34.2473 18.9239ZM13.4519 5.41515L15.4753 11.6725H22.0484L16.7385 15.5204L18.7619 21.7777L13.4519 17.9181L8.1303 21.7777L10.1654 15.5204L4.84375 11.6725H11.4285L13.4519 5.41515Z" fill="#FFDA44"/>
</g>
<defs>
<clipPath id="clip0_1223_23022">
<rect width="60" height="40" rx="5" fill="white"/>
</clipPath>
</defs>
</svg>
