<svg width="146" height="60" viewBox="0 0 146 60" fill="none" xmlns="http://www.w3.org/2000/svg">
<path d="M0.833333 29.5C0.833333 30.9728 2.02724 32.1667 3.5 32.1667C4.97276 32.1667 6.16667 30.9728 6.16667 29.5C6.16667 28.0272 4.97276 26.8333 3.5 26.8333C2.02724 26.8333 0.833333 28.0272 0.833333 29.5ZM140.333 29.5001C140.333 30.9729 141.527 32.1668 143 32.1668C144.473 32.1668 145.667 30.9729 145.667 29.5001C145.667 28.0274 144.473 26.8335 143 26.8335C141.527 26.8335 140.333 28.0274 140.333 29.5001ZM3.5 30L143 30.0001L143 29.0001L3.5 29L3.5 30Z" fill="#71A6DB"/>
<rect width="52" height="60" transform="translate(47)" fill="white"/>
<path d="M66.6 37.2H79.4M66.6 30.8H79.4M82.6 10V16.4M73 10V16.4M63.4 10V16.4M58.6 13.2H87.4C87.8243 13.2 88.2313 13.3686 88.5314 13.6686C88.8314 13.9687 89 14.3757 89 14.8V45.2C89 46.473 88.4943 47.6939 87.5941 48.5941C86.6939 49.4943 85.473 50 84.2 50H61.8C60.527 50 59.3061 49.4943 58.4059 48.5941C57.5057 47.6939 57 46.473 57 45.2V14.8C57 14.3757 57.1686 13.9687 57.4686 13.6686C57.7687 13.3686 58.1757 13.2 58.6 13.2Z" stroke="url(#paint0_linear_3609_144)" stroke-linecap="round" stroke-linejoin="round"/>
<defs>
<linearGradient id="paint0_linear_3609_144" x1="73" y1="10" x2="73" y2="50" gradientUnits="userSpaceOnUse">
<stop stop-color="#89C1EC"/>
<stop offset="1" stop-color="#71A6DB"/>
</linearGradient>
</defs>
</svg>
