<svg width="146" height="60" viewBox="0 0 146 60" fill="none" xmlns="http://www.w3.org/2000/svg">
<path d="M0.333333 28.5C0.333333 29.9728 1.52724 31.1667 3 31.1667C4.47276 31.1667 5.66667 29.9728 5.66667 28.5C5.66667 27.0272 4.47276 25.8333 3 25.8333C1.52724 25.8333 0.333333 27.0272 0.333333 28.5ZM139.833 28.5001C139.833 29.9729 141.027 31.1668 142.5 31.1668C143.973 31.1668 145.167 29.9729 145.167 28.5001C145.167 27.0274 143.973 25.8335 142.5 25.8335C141.027 25.8335 139.833 27.0274 139.833 28.5001ZM3 29L142.5 29.0001L142.5 28.0001L3 28L3 29Z" fill="#71A6DB"/>
<rect width="60" height="60" transform="translate(43)" fill="white"/>
<path d="M84.8714 11.0575L76.1293 19.7996L77.3078 25.6922L83.2004 26.8707L91.9425 18.1286L91.9434 18.1282C93.0254 20.6825 93.2842 23.5106 92.6837 26.2188C92.0832 28.927 90.6533 31.3806 88.593 33.2381C86.5327 35.0956 83.9446 36.2645 81.1888 36.5821C78.4331 36.8998 75.6469 36.3504 73.218 35.0104L73.2183 35.0099L61.5336 48.5375C60.5957 49.4743 59.3242 50.0004 57.9986 50C56.673 49.9996 55.4018 49.4729 54.4645 48.5355C53.5271 47.5982 53.0004 46.327 53 45.0014C52.9996 43.6758 53.5257 42.4043 54.4625 41.4664L67.9899 29.7819L67.9896 29.782C66.6496 27.3532 66.1002 24.5669 66.4179 21.8112C66.7355 19.0554 67.9044 16.4673 69.7619 14.407C71.6194 12.3467 74.073 10.9168 76.7812 10.3163C79.4894 9.71579 82.3175 9.97458 84.8718 11.0566L84.8714 11.0575Z" stroke="url(#paint0_linear_3609_147)" stroke-linecap="round" stroke-linejoin="round"/>
<defs>
<linearGradient id="paint0_linear_3609_147" x1="73" y1="10" x2="73" y2="50" gradientUnits="userSpaceOnUse">
<stop stop-color="#89C1EC"/>
<stop offset="1" stop-color="#71A6DB"/>
</linearGradient>
</defs>
</svg>
