<svg width="146" height="60" viewBox="0 0 146 60" fill="none" xmlns="http://www.w3.org/2000/svg">
<path d="M0.833333 29.5C0.833333 30.9728 2.02724 32.1667 3.5 32.1667C4.97276 32.1667 6.16667 30.9728 6.16667 29.5C6.16667 28.0272 4.97276 26.8333 3.5 26.8333C2.02724 26.8333 0.833333 28.0272 0.833333 29.5ZM140.333 29.5001C140.333 30.9729 141.527 32.1668 143 32.1668C144.473 32.1668 145.667 30.9729 145.667 29.5001C145.667 28.0274 144.473 26.8335 143 26.8335C141.527 26.8335 140.333 28.0274 140.333 29.5001ZM3.5 30L143 30.0001L143 29.0001L3.5 29L3.5 30Z" fill="#71A6DB"/>
<rect width="52.7273" height="60" transform="translate(47)" fill="white"/>
<rect width="52.7273" height="60" transform="translate(47)" fill="white"/>
<rect width="52.7273" height="60" transform="translate(47)" fill="white"/>
<path d="M57 40.9091H77M64.2727 50V10H77.9091C81.0435 10 84.0495 11.2451 86.2658 13.4615C88.4821 15.6778 89.7273 18.6838 89.7273 21.8182C89.7273 24.9526 88.4821 27.9586 86.2658 30.1749C84.0495 32.3912 81.0435 33.6364 77.9091 33.6364H57" stroke="#71A6DB" stroke-linecap="round" stroke-linejoin="round"/>
</svg>
