<svg width="146" height="60" viewBox="0 0 146 60" fill="none" xmlns="http://www.w3.org/2000/svg">
<path d="M0.833333 30.5C0.833333 31.9728 2.02724 33.1667 3.5 33.1667C4.97276 33.1667 6.16667 31.9728 6.16667 30.5C6.16667 29.0272 4.97276 27.8333 3.5 27.8333C2.02724 27.8333 0.833333 29.0272 0.833333 30.5ZM140.333 30.5001C140.333 31.9729 141.527 33.1668 143 33.1668C144.473 33.1668 145.667 31.9729 145.667 30.5001C145.667 29.0274 144.473 27.8335 143 27.8335C141.527 27.8335 140.333 29.0274 140.333 30.5001ZM3.5 31L143 31.0001L143 30.0001L3.5 30L3.5 31Z" fill="#71A6DB"/>
<rect width="79.9361" height="60" transform="translate(34)" fill="white"/>
<path d="M96.4812 29.8615L102.805 26.6997C103.048 26.5782 103.264 26.4094 103.442 26.2033C103.619 25.9972 103.753 25.7578 103.837 25.4992C103.92 25.2406 103.952 24.968 103.929 24.6971C103.906 24.4263 103.829 24.1627 103.704 23.9218L97.412 11.8729C97.1637 11.3973 96.7385 11.0382 96.2279 10.873C95.7174 10.7078 95.1625 10.7497 94.6825 10.9897L88.2946 14.1836M96.4812 29.8615L88.2946 14.1836M96.4812 29.8615L92.3879 34.6501M88.2946 14.1836L77.8858 14.1836C77.617 14.1836 77.3509 14.2366 77.1026 14.3394C76.8543 14.4423 76.6286 14.593 76.4386 14.7831L66.4268 24.7949C66.2194 25.0022 66.0591 25.2517 65.9565 25.5264C65.854 25.8011 65.8117 26.0947 65.8325 26.3872C65.8533 26.6797 65.9367 26.9643 66.077 27.2217C66.2174 27.4792 66.4114 27.7035 66.646 27.8794L68.0328 28.9195C69.4498 29.9823 71.1734 30.5568 72.9447 30.5568C74.7161 30.5568 76.4396 29.9823 77.8567 28.9195L81.1313 26.4635L92.3879 34.6501M92.3879 34.6501L82.9741 44.064C82.7241 44.3139 82.4138 44.4948 82.0732 44.5892C81.7326 44.6835 81.3733 44.688 81.0305 44.6023L66.2033 40.8955C65.9252 40.826 65.6648 40.6988 65.4389 40.5222L51.4549 29.5873M51.4549 29.5873L45.1314 26.4255C44.8883 26.304 44.6718 26.1352 44.4946 25.9291C44.3174 25.723 44.1831 25.4836 44.0994 25.2251C44.0157 24.9665 43.9844 24.6938 44.0072 24.4229C44.0301 24.1521 44.1066 23.8885 44.2324 23.6476L50.5241 11.5987C50.7724 11.1231 51.1977 10.764 51.7082 10.5988C52.2187 10.4336 52.7737 10.4755 53.2536 10.7155L59.6415 13.9094L51.4549 29.5873ZM69.8748 50L62.1641 48.0724C61.8513 47.9941 61.5613 47.8431 61.3179 47.6315L55.5482 42.6163M59.7885 13.9094L72.9177 10.0818C73.3867 9.94507 73.8892 9.98061 74.3343 10.182L83.178 14.1836" stroke="url(#paint0_linear_3609_146)" stroke-linecap="round" stroke-linejoin="round"/>
<defs>
<linearGradient id="paint0_linear_3609_146" x1="73.9681" y1="10" x2="73.9681" y2="50" gradientUnits="userSpaceOnUse">
<stop stop-color="#89C1EC"/>
<stop offset="1" stop-color="#71A6DB"/>
</linearGradient>
</defs>
</svg>
