<svg width="146" height="50" viewBox="0 0 146 50" fill="none" xmlns="http://www.w3.org/2000/svg">
<path d="M0.333333 24.5C0.333333 25.9728 1.52724 27.1667 3 27.1667C4.47276 27.1667 5.66667 25.9728 5.66667 24.5C5.66667 23.0272 4.47276 21.8333 3 21.8333C1.52724 21.8333 0.333333 23.0272 0.333333 24.5ZM139.833 24.5001C139.833 25.9729 141.027 27.1668 142.5 27.1668C143.973 27.1668 145.167 25.9729 145.167 24.5001C145.167 23.0274 143.973 21.8335 142.5 21.8335C141.027 21.8335 139.833 23.0274 139.833 24.5001ZM3 25L142.5 25.0001L142.5 24.0001L3 24L3 25Z" fill="#71A6DB"/>
<rect width="64.3023" height="50" transform="translate(40)" fill="white"/>
<path d="M50 25.2895C49.7239 25.2895 49.5 25.5133 49.5 25.7895C49.5 26.0656 49.7239 26.2895 50 26.2895V25.2895ZM81.6445 26.2895C81.9207 26.2895 82.1445 26.0656 82.1445 25.7895C82.1445 25.5133 81.9207 25.2895 81.6445 25.2895V26.2895ZM81.1445 31.1609C81.1445 31.437 81.3684 31.6609 81.6445 31.6609C81.9207 31.6609 82.1445 31.437 82.1445 31.1609H81.1445ZM94.3023 21.0526H94.8023C94.8023 20.9889 94.7901 20.9258 94.7664 20.8666L94.3023 21.0526ZM81.6445 13.1579V12.6579C81.3684 12.6579 81.1445 12.8818 81.1445 13.1579H81.6445ZM90.0667 13.1579V12.6579V13.1579ZM91.5357 14.1504L91.9998 13.9644V13.9644L91.5357 14.1504ZM50 33.6842H49.5H50ZM51.5822 10V10.5V10ZM81.6445 10H82.1445C82.1445 9.72386 81.9207 9.5 81.6445 9.5V10ZM79.2712 34.7632H65.0311V35.7632H79.2712V34.7632ZM88.2645 35.2632C88.2645 37.6021 86.3642 39.5 84.0179 39.5V40.5C86.9145 40.5 89.2645 38.1564 89.2645 35.2632H88.2645ZM84.0179 39.5C81.6715 39.5 79.7712 37.6021 79.7712 35.2632H78.7712C78.7712 38.1564 81.1212 40.5 84.0179 40.5V39.5ZM79.7712 35.2632C79.7712 32.9242 81.6715 31.0263 84.0179 31.0263V30.0263C81.1212 30.0263 78.7712 32.37 78.7712 35.2632H79.7712ZM84.0179 31.0263C86.3642 31.0263 88.2645 32.9242 88.2645 35.2632H89.2645C89.2645 32.37 86.9145 30.0263 84.0179 30.0263V31.0263ZM64.5311 35.2632C64.5311 37.6021 62.6308 39.5 60.2845 39.5V40.5C63.1812 40.5 65.5311 38.1564 65.5311 35.2632H64.5311ZM60.2845 39.5C57.9381 39.5 56.0378 37.6021 56.0378 35.2632H55.0378C55.0378 38.1564 57.3878 40.5 60.2845 40.5V39.5ZM56.0378 35.2632C56.0378 32.9242 57.9381 31.0263 60.2845 31.0263V30.0263C57.3878 30.0263 55.0378 32.37 55.0378 35.2632H56.0378ZM60.2845 31.0263C62.6308 31.0263 64.5311 32.9242 64.5311 35.2632H65.5311C65.5311 32.37 63.1812 30.0263 60.2845 30.0263V31.0263ZM50 26.2895H81.6445V25.2895H50V26.2895ZM82.1445 31.1609V21.0526H81.1445V31.1609H82.1445ZM81.6445 21.5526H94.3023V20.5526H81.6445V21.5526ZM93.8023 21.0526V33.6842H94.8023V21.0526H93.8023ZM93.8023 33.6842C93.8023 33.97 93.6886 34.2444 93.4857 34.4468L94.1921 35.1546C94.5827 34.7648 94.8023 34.2359 94.8023 33.6842H93.8023ZM93.4857 34.4468C93.2828 34.6492 93.0075 34.7632 92.7201 34.7632V35.7632C93.272 35.7632 93.8015 35.5444 94.1921 35.1546L93.4857 34.4468ZM92.7201 34.7632H88.7645V35.7632H92.7201V34.7632ZM82.1445 21.0526V13.1579H81.1445V21.0526H82.1445ZM81.6445 13.6579H90.0667V12.6579H81.6445V13.6579ZM90.0667 13.6579C90.2832 13.6579 90.4947 13.7226 90.6738 13.8437L91.2336 13.0151C90.889 12.7823 90.4826 12.6579 90.0667 12.6579V13.6579ZM90.6738 13.8437C90.8529 13.9647 90.9914 14.1364 91.0716 14.3365L91.9998 13.9644C91.8451 13.5785 91.5782 13.2479 91.2336 13.0151L90.6738 13.8437ZM91.0716 14.3365L93.8382 21.2387L94.7664 20.8666L91.9998 13.9644L91.0716 14.3365ZM55.5378 34.7632H51.5822V35.7632H55.5378V34.7632ZM51.5822 34.7632C51.2949 34.7632 51.0195 34.6492 50.8166 34.4468L50.1102 35.1546C50.5008 35.5444 51.0303 35.7632 51.5822 35.7632V34.7632ZM50.8166 34.4468C50.6138 34.2444 50.5 33.97 50.5 33.6842H49.5C49.5 34.2359 49.7196 34.7648 50.1102 35.1546L50.8166 34.4468ZM50.5 33.6842V11.5789H49.5V33.6842H50.5ZM50.5 11.5789C50.5 11.2931 50.6138 11.0188 50.8166 10.8164L50.1102 10.1085C49.7196 10.4983 49.5 11.0272 49.5 11.5789H50.5ZM50.8166 10.8164C51.0195 10.6139 51.2949 10.5 51.5822 10.5V9.5C51.0303 9.5 50.5008 9.71878 50.1102 10.1085L50.8166 10.8164ZM51.5822 10.5H81.6445V9.5H51.5822V10.5ZM81.1445 10V31.1609H82.1445V10H81.1445Z" fill="url(#paint0_linear_3609_143)"/>
<defs>
<linearGradient id="paint0_linear_3609_143" x1="72.1512" y1="10" x2="72.1512" y2="40" gradientUnits="userSpaceOnUse">
<stop stop-color="#89C1EC"/>
<stop offset="1" stop-color="#71A6DB"/>
</linearGradient>
</defs>
</svg>
