<svg width="146" height="60" viewBox="0 0 146 60" fill="none" xmlns="http://www.w3.org/2000/svg">
<path d="M0.333333 28.5C0.333333 29.9728 1.52724 31.1667 3 31.1667C4.47276 31.1667 5.66667 29.9728 5.66667 28.5C5.66667 27.0272 4.47276 25.8333 3 25.8333C1.52724 25.8333 0.333333 27.0272 0.333333 28.5ZM139.833 28.5001C139.833 29.9729 141.027 31.1668 142.5 31.1668C143.973 31.1668 145.167 29.9729 145.167 28.5001C145.167 27.0274 143.973 25.8335 142.5 25.8335C141.027 25.8335 139.833 27.0274 139.833 28.5001ZM3 29L142.5 29.0001L142.5 28.0001L3 28L3 29Z" fill="#71A6DB"/>
<rect width="58.3342" height="60" transform="translate(43)" fill="white"/>
<path d="M81.7506 22.1972L68.9725 34.3945L62.5835 28.2959M53 24.5205V11.7425C53 11.2803 53.1836 10.8371 53.5104 10.5104C53.8371 10.1836 54.2803 10 54.7425 10H89.5917C90.0538 10 90.4971 10.1836 90.8238 10.5104C91.1506 10.8371 91.3342 11.2803 91.3342 11.7425V24.5205C91.3342 42.8197 75.8032 48.8824 72.7021 49.9105C72.3554 50.0298 71.9788 50.0298 71.6321 49.9105C68.531 48.8824 53 42.8197 53 24.5205Z" stroke="url(#paint0_linear_3609_145)" stroke-linecap="round" stroke-linejoin="round"/>
<defs>
<linearGradient id="paint0_linear_3609_145" x1="72.1671" y1="10" x2="72.1671" y2="50" gradientUnits="userSpaceOnUse">
<stop stop-color="#89C1EC"/>
<stop offset="1" stop-color="#71A6DB"/>
</linearGradient>
</defs>
</svg>
