<svg width="115" height="60" viewBox="0 0 115 60" fill="none" xmlns="http://www.w3.org/2000/svg">
<path d="M0.833333 29.5C0.833333 30.9728 2.02724 32.1667 3.5 32.1667C4.97276 32.1667 6.16667 30.9728 6.16667 29.5C6.16667 28.0272 4.97276 26.8333 3.5 26.8333C2.02724 26.8333 0.833333 28.0272 0.833333 29.5ZM108.333 29.5C108.333 30.9728 109.527 32.1667 111 32.1667C112.473 32.1667 113.667 30.9728 113.667 29.5C113.667 28.0272 112.473 26.8333 111 26.8333C109.527 26.8333 108.333 28.0272 108.333 29.5ZM3.5 30L111 30L111 29L3.5 29V30Z" fill="#71A6DB"/>
<rect width="83.7942" height="60" transform="translate(31)" fill="white"/>
<path d="M84.4276 39.4217L84.4273 38.9217C84.1512 38.9219 83.9275 39.1458 83.9276 39.4219C83.9277 39.698 84.1516 39.9217 84.4277 39.9217L84.4276 39.4217ZM104.385 50.2857C104.544 50.5117 104.856 50.5663 105.082 50.4077C105.308 50.249 105.362 49.9372 105.203 49.7112L104.385 50.2857ZM40.591 49.7124C40.4322 49.9383 40.4865 50.2502 40.7124 50.409C40.9383 50.5678 41.2502 50.5135 41.409 50.2876L40.591 49.7124ZM81.3253 50.286C81.4841 50.5119 81.796 50.5663 82.0219 50.4075C82.2478 50.2486 82.3022 49.9367 82.1433 49.7109L81.3253 50.286ZM80.3009 10.07C80.0351 10.1449 79.8803 10.4211 79.9552 10.6869C80.0301 10.9527 80.3063 11.1074 80.5721 11.0325L80.3009 10.07ZM84.428 39.9217C88.3424 39.9188 92.1999 40.8593 95.6738 42.6633L96.1347 41.7759C92.5182 39.8978 88.5024 38.9187 84.4273 38.9217L84.428 39.9217ZM95.6738 42.6633C99.1477 44.4674 102.136 47.082 104.385 50.2857L105.203 49.7112C102.862 46.3759 99.7512 43.654 96.1347 41.7759L95.6738 42.6633ZM41.409 50.2876C43.6602 47.0855 46.6487 44.4721 50.1223 42.6679L49.6614 41.7805C46.0454 43.6586 42.9344 46.3791 40.591 49.7124L41.409 50.2876ZM50.1223 42.6679C53.5959 40.8637 57.4526 39.9218 61.3668 39.9217L61.3667 38.9217C57.2921 38.9218 53.2773 39.9023 49.6614 41.7805L50.1223 42.6679ZM61.3668 39.9217C65.281 39.9215 69.1377 40.8631 72.6115 42.667L73.0723 41.7796C69.4562 39.9017 65.4414 38.9215 61.3667 38.9217L61.3668 39.9217ZM72.6115 42.667C76.0852 44.4709 79.0739 47.0841 81.3253 50.286L82.1433 49.7109C79.7997 46.3777 76.6884 43.6574 73.0723 41.7796L72.6115 42.667ZM75.5769 24.7125C75.5769 32.56 69.2143 38.9217 61.3667 38.9217V39.9217C69.7665 39.9217 76.5769 33.1123 76.5769 24.7125H75.5769ZM61.3667 38.9217C53.5193 38.9217 47.1586 32.5601 47.1586 24.7125H46.1586C46.1586 33.1123 52.9669 39.9217 61.3667 39.9217V38.9217ZM47.1586 24.7125C47.1586 16.865 53.5202 10.5034 61.3677 10.5034V9.50337C52.9679 9.50337 46.1586 16.3127 46.1586 24.7125H47.1586ZM61.3677 10.5034C69.2152 10.5034 75.5769 16.865 75.5769 24.7125H76.5769C76.5769 16.3127 69.7675 9.50337 61.3677 9.50337V10.5034ZM80.5721 11.0325C82.5264 10.4819 84.5761 10.3565 86.583 10.6647L86.7348 9.67626C84.5867 9.34636 82.3928 9.48063 80.3009 10.07L80.5721 11.0325ZM86.583 10.6647C88.59 10.9729 90.5075 11.7076 92.2066 12.8193L92.7541 11.9825C90.9355 10.7926 88.883 10.0062 86.7348 9.67626L86.583 10.6647ZM92.2066 12.8193C93.9057 13.931 95.3468 15.3939 96.4329 17.1095L97.2778 16.5746C96.1153 14.7383 94.5728 13.1725 92.7541 11.9825L92.2066 12.8193ZM96.4329 17.1095C97.519 18.8251 98.2248 20.7535 98.5029 22.7648L99.4934 22.6278C99.1958 20.475 98.4403 18.4109 97.2778 16.5746L96.4329 17.1095ZM98.5029 22.7648C98.7809 24.7761 98.6247 26.8237 98.0448 28.7696L99.0032 29.0552C99.6239 26.9723 99.7911 24.7807 99.4934 22.6278L98.5029 22.7648ZM98.0448 28.7696C97.4649 30.7154 96.4747 32.5145 95.141 34.0454L95.895 34.7023C97.3226 33.0636 98.3824 31.138 99.0032 29.0552L98.0448 28.7696ZM95.141 34.0454C93.8073 35.5764 92.1609 36.8038 90.3129 37.6449L90.7271 38.5551C92.7052 37.6548 94.4674 36.341 95.895 34.7023L95.141 34.0454ZM90.3129 37.6449C88.4649 38.4861 86.458 38.9214 84.4276 38.9217L84.4277 39.9217C86.601 39.9214 88.7491 39.4554 90.7271 38.5551L90.3129 37.6449Z" fill="url(#paint0_linear_3609_149)"/>
<defs>
<linearGradient id="paint0_linear_3609_149" x1="72.8971" y1="10" x2="72.8971" y2="50" gradientUnits="userSpaceOnUse">
<stop stop-color="#89C1EC"/>
<stop offset="1" stop-color="#71A6DB"/>
</linearGradient>
</defs>
</svg>
