<svg width="62" height="69" viewBox="0 0 62 69" fill="none" xmlns="http://www.w3.org/2000/svg">
<path d="M1.72876 67.2712C-0.354032 65.1884 -0.354032 61.8116 1.72876 59.7288C3.81156 57.646 7.18844 57.646 9.27124 59.7288C11.354 61.8116 11.354 65.1884 9.27124 67.2712C7.18844 69.354 3.81156 69.354 1.72876 67.2712ZM61.2682 7.85982C61.6218 8.28409 61.5645 8.91466 61.1402 9.26822L54.2262 15.0299C53.8019 15.3834 53.1714 15.3261 52.8178 14.9018C52.4642 14.4776 52.5215 13.847 52.9458 13.4934L59.0916 8.37196L53.9701 2.22619C53.6166 1.80192 53.6739 1.17135 54.0982 0.817788C54.5224 0.464223 55.153 0.521547 55.5066 0.945825L61.2682 7.85982ZM59.7536 8.43215L59.8441 7.43625L59.7536 8.43215ZM4.49106 63.447C4.44106 62.897 4.8464 62.4106 5.39641 62.3606C5.94643 62.3106 6.43284 62.7159 6.48284 63.2659L4.49106 63.447ZM6.44109 62.8066C6.49109 63.3566 6.08575 63.843 5.53573 63.893C4.98571 63.943 4.4993 63.5377 4.4493 62.9877L6.44109 62.8066ZM4.27119 60.3926C4.24706 59.8408 4.67479 59.374 5.22655 59.3498C5.7783 59.3257 6.24515 59.7534 6.26928 60.3052L4.27119 60.3926ZM6.51532 52.7656C6.4549 53.3146 5.96089 53.7106 5.41192 53.6502C4.86295 53.5898 4.4669 53.0958 4.52732 52.5468L6.51532 52.7656ZM5.30045 47.6994C5.41385 47.1589 5.94396 46.8127 6.48447 46.9261C7.02499 47.0395 7.37124 47.5696 7.25784 48.1101L5.30045 47.6994ZM9.37552 40.8749C9.17961 41.3913 8.6022 41.6511 8.08583 41.4552C7.56946 41.2593 7.30967 40.6819 7.50557 40.1655L9.37552 40.8749ZM9.46777 35.6648C9.71274 35.1698 10.3126 34.9671 10.8076 35.2121C11.3026 35.4571 11.5052 36.0569 11.2603 36.5519L9.46777 35.6648ZM15.1163 30.07C14.7983 30.5216 14.1745 30.6299 13.7229 30.3119C13.2713 29.9939 13.163 29.3701 13.481 28.9185L15.1163 30.07ZM16.4955 25.045C16.8551 24.6258 17.4864 24.5776 17.9056 24.9372C18.3248 25.2968 18.373 25.9281 18.0134 26.3473L16.4955 25.045ZM23.3473 21.0134C22.9281 21.373 22.2968 21.3248 21.9372 20.9056C21.5776 20.4865 21.6258 19.8551 22.045 19.4955L23.3473 21.0134ZM25.9185 16.481C26.3701 16.163 26.9939 16.2713 27.3119 16.7229C27.6298 17.1745 27.5215 17.7983 27.07 18.1163L25.9185 16.481ZM33.5519 14.2603C33.0569 14.5052 32.4571 14.3026 32.2121 13.8076C31.9671 13.3126 32.1698 12.7127 32.6648 12.4678L33.5519 14.2603ZM37.1655 10.5056C37.6819 10.3097 38.2593 10.5695 38.4552 11.0858C38.6511 11.6022 38.3913 12.1796 37.8749 12.3755L37.1655 10.5056ZM45.1101 10.2578C44.5696 10.3712 44.0395 10.025 43.9261 9.48448C43.8127 8.94396 44.1589 8.41385 44.6994 8.30045L45.1101 10.2578ZM49.5468 7.52732C50.0958 7.46691 50.5898 7.86296 50.6502 8.41193C50.7106 8.9609 50.3146 9.4549 49.7656 9.51532L49.5468 7.52732ZM57.3052 9.26928C56.7534 9.24515 56.3257 8.77831 56.3498 8.22655C56.3739 7.67479 56.8408 7.24706 57.3925 7.27119L57.3052 9.26928ZM59.9877 7.4493C60.5377 7.4993 60.943 7.98571 60.893 8.53573C60.843 9.08575 60.3566 9.49109 59.8066 9.44109L59.9877 7.4493ZM60.2659 9.48285C59.7159 9.43284 59.3106 8.94643 59.3606 8.39642C59.4106 7.8464 59.897 7.44105 60.447 7.49106L60.2659 9.48285ZM4.50411 63.5905L4.49106 63.447L6.48284 63.2659L6.49589 63.4095L4.50411 63.5905ZM4.4493 62.9877L4.43625 62.8441L6.42804 62.663L6.44109 62.8066L4.4493 62.9877ZM4.43625 62.8441C4.36164 62.0234 4.30676 61.2061 4.27119 60.3926L6.26928 60.3052C6.30348 61.0874 6.35626 61.8735 6.42804 62.663L4.43625 62.8441ZM4.52732 52.5468C4.70781 50.9069 4.9668 49.2898 5.30045 47.6994L7.25784 48.1101C6.93743 49.6373 6.68868 51.1904 6.51532 52.7656L4.52732 52.5468ZM7.50557 40.1655C8.08863 38.6287 8.7441 37.127 9.46777 35.6648L11.2603 36.5519C10.5651 37.9566 9.9355 39.3989 9.37552 40.8749L7.50557 40.1655ZM13.481 28.9185C14.4244 27.5787 15.4307 26.286 16.4955 25.045L18.0134 26.3473C16.99 27.5401 16.0229 28.7824 15.1163 30.07L13.481 28.9185ZM22.045 19.4955C23.286 18.4307 24.5787 17.4245 25.9185 16.481L27.07 18.1163C25.7824 19.0229 24.5401 19.99 23.3473 21.0134L22.045 19.4955ZM32.6648 12.4678C34.127 11.7441 35.6287 11.0886 37.1655 10.5056L37.8749 12.3755C36.3989 12.9355 34.9566 13.5651 33.5519 14.2603L32.6648 12.4678ZM44.6994 8.30045C46.2898 7.96681 47.9069 7.70781 49.5468 7.52732L49.7656 9.51532C48.1904 9.68869 46.6373 9.93743 45.1101 10.2578L44.6994 8.30045ZM57.3925 7.27119C58.2061 7.30676 59.0234 7.36164 59.8441 7.43625L59.663 9.42804C58.8735 9.35626 58.0874 9.30348 57.3052 9.26928L57.3925 7.27119ZM59.8441 7.43625L59.9877 7.4493L59.8066 9.44109L59.663 9.42804L59.8441 7.43625ZM60.447 7.49106L60.5905 7.50411L60.4095 9.49589L60.2659 9.48285L60.447 7.49106Z" fill="#71A6DB"/>
</svg>
