<svg width="62" height="69" viewBox="0 0 62 69" fill="none" xmlns="http://www.w3.org/2000/svg">
<path d="M1.72876 2.22876C-0.354032 4.31156 -0.354032 7.68844 1.72876 9.77124C3.81156 11.854 7.18844 11.854 9.27124 9.77124C11.354 7.68844 11.354 4.31156 9.27124 2.22876C7.18844 0.145968 3.81156 0.145968 1.72876 2.22876ZM61.2634 61.6459C61.6201 61.2243 61.5675 60.5934 61.1459 60.2366L54.2755 54.4231C53.8539 54.0664 53.2229 54.119 52.8661 54.5406C52.5094 54.9622 52.562 55.5932 52.9836 55.9499L59.0907 61.1174L53.9231 67.2245C53.5664 67.6461 53.619 68.2771 54.0406 68.6339C54.4622 68.9906 55.0932 68.938 55.4499 68.5164L61.2634 61.6459ZM59.3868 61.0928L59.3037 60.0962L59.3868 61.0928ZM4.48561 6.13103C4.43975 6.68141 4.84874 7.16476 5.39911 7.21063C5.94949 7.25649 6.43284 6.8475 6.47871 6.29713L4.48561 6.13103ZM6.42162 6.98218C6.46748 6.4318 6.05849 5.94845 5.50812 5.90259C4.95774 5.85672 4.47439 6.26571 4.42853 6.81609L6.42162 6.98218ZM4.26488 9.46176C4.2447 10.0137 4.67576 10.4775 5.22768 10.4976C5.77959 10.5178 6.24337 10.0867 6.26355 9.53483L4.26488 9.46176ZM6.55623 17.0079C6.49259 16.4593 5.99627 16.0662 5.44766 16.1298C4.89906 16.1935 4.50591 16.6898 4.56955 17.2384L6.55623 17.0079ZM5.36215 22.0399C5.47825 22.5799 6.01008 22.9235 6.55002 22.8074C7.08997 22.6913 7.43356 22.1594 7.31746 21.6195L5.36215 22.0399ZM9.44783 28.7836C9.25007 28.2679 8.67172 28.0102 8.15606 28.208C7.64039 28.4057 7.38269 28.9841 7.58046 29.4997L9.44783 28.7836ZM9.53994 33.9556C9.78626 34.4499 10.3867 34.6509 10.881 34.4046C11.3753 34.1582 11.5763 33.5578 11.33 33.0635L9.53994 33.9556ZM15.1663 39.4819C14.8477 39.0307 14.2237 38.9233 13.7726 39.2419C13.3215 39.5606 13.2141 40.1845 13.5327 40.6357L15.1663 39.4819ZM16.5252 44.4729C16.8851 44.8918 17.5165 44.9397 17.9354 44.5798C18.3543 44.2199 18.4022 43.5885 18.0423 43.1696L16.5252 44.4729ZM23.3304 48.4577C22.9115 48.0978 22.2801 48.1457 21.9202 48.5646C21.5603 48.9835 21.6082 49.6149 22.0271 49.9748L23.3304 48.4577ZM25.8643 52.9673C26.3155 53.286 26.9395 53.1785 27.2581 52.7274C27.5767 52.2763 27.4693 51.6523 27.0181 51.3337L25.8643 52.9673ZM33.4365 55.17C32.9422 54.9237 32.3418 55.1247 32.0954 55.619C31.8491 56.1133 32.0501 56.7137 32.5445 56.9601L33.4365 55.17ZM37.0003 58.9195C37.5159 59.1173 38.0943 58.8596 38.292 58.3439C38.4898 57.8283 38.2321 57.2499 37.7164 57.0522L37.0003 58.9195ZM44.8805 59.1825C44.3406 59.0664 43.8088 59.41 43.6927 59.95C43.5766 60.4899 43.9201 61.0218 44.4601 61.1379L44.8805 59.1825ZM49.2616 61.9305C49.8102 61.9941 50.3066 61.6009 50.3702 61.0523C50.4338 60.5037 50.0407 60.0074 49.4921 59.9438L49.2616 61.9305ZM56.9652 60.2365C56.4133 60.2566 55.9822 60.7204 56.0024 61.2723C56.0226 61.8242 56.4863 62.2553 57.0383 62.2351L56.9652 60.2365ZM59.6839 62.0715C60.2343 62.0256 60.6433 61.5423 60.5974 60.9919C60.5515 60.4415 60.0682 60.0325 59.5178 60.0784L59.6839 62.0715ZM60.2029 60.0213C59.6525 60.0672 59.2435 60.5505 59.2894 61.1009C59.3352 61.6513 59.8186 62.0603 60.369 62.0144L60.2029 60.0213ZM4.50345 5.91695L4.48561 6.13103L6.47871 6.29713L6.49655 6.08305L4.50345 5.91695ZM4.42853 6.81609L4.41069 7.03017L6.40378 7.19626L6.42162 6.98218L4.42853 6.81609ZM4.41069 7.03017C4.34285 7.84422 4.29438 8.65489 4.26488 9.46176L6.26355 9.53483C6.29191 8.75902 6.33852 7.97936 6.40378 7.19626L4.41069 7.03017ZM4.56955 17.2384C4.75799 18.8629 5.02344 20.4647 5.36215 22.0399L7.31746 21.6195C6.99219 20.1068 6.73724 18.5684 6.55623 17.0079L4.56955 17.2384ZM7.58046 29.4997C8.16395 31.0212 8.81848 32.5078 9.53994 33.9556L11.33 33.0635C10.6369 31.6728 10.0082 30.2448 9.44783 28.7836L7.58046 29.4997ZM13.5327 40.6357C14.4699 41.9627 15.4688 43.2431 16.5252 44.4729L18.0423 43.1696C17.027 41.9877 16.067 40.7571 15.1663 39.4819L13.5327 40.6357ZM22.0271 49.9748C23.2569 51.0312 24.5374 52.0301 25.8643 52.9673L27.0181 51.3337C25.7429 50.4331 24.5123 49.473 23.3304 48.4577L22.0271 49.9748ZM32.5445 56.9601C33.9922 57.6815 35.4788 58.3361 37.0003 58.9195L37.7164 57.0522C36.2552 56.4918 34.8273 55.8631 33.4365 55.17L32.5445 56.9601ZM44.4601 61.1379C46.0353 61.4766 47.6371 61.742 49.2616 61.9305L49.4921 59.9438C47.9316 59.7628 46.3932 59.5078 44.8805 59.1825L44.4601 61.1379ZM57.0383 62.2351C57.8451 62.2056 58.6558 62.1572 59.4698 62.0893L59.3037 60.0962C58.5206 60.1615 57.741 60.2081 56.9652 60.2365L57.0383 62.2351ZM59.4698 62.0893L59.6839 62.0715L59.5178 60.0784L59.3037 60.0962L59.4698 62.0893ZM60.369 62.0144L60.583 61.9965L60.417 60.0035L60.2029 60.0213L60.369 62.0144Z" fill="#71A6DB"/>
</svg>
