<svg width="92" height="64" viewBox="0 0 92 64" fill="none" xmlns="http://www.w3.org/2000/svg">
<path d="M68.34 3.60008L66.74 3.96008V4.07008L59.5 59.0801L62.39 59.2201C64.79 59.3301 66.97 58.2101 67.21 56.6801L74.61 8.58008C75.16 5.01008 72.31 2.73008 68.35 3.61008H68.34V3.60008Z" fill="#8FB9E3"/>
<path d="M18.0985 55.0302L6.63848 21.7202C5.87848 19.5302 6.78848 17.3502 8.72848 16.9202L66.7385 3.9502C67.0285 1.3302 65.4085 -0.429803 63.1085 0.0901974L1.33848 13.8902C0.118483 14.1602 -0.341517 15.8102 0.268483 17.5402L15.4185 59.9402C15.6985 60.7202 16.6185 61.3802 17.4885 61.4302L56.4885 63.6802C57.7885 63.7602 58.9585 63.0702 59.0785 62.1202L59.4785 59.0602L21.5085 57.2802C20.0185 57.2102 18.4985 56.2102 18.0885 55.0102V55.0302H18.0985Z" fill="#6AC2EE"/>
<path d="M66.7366 3.9502L8.71662 16.9202C6.77662 17.3502 5.87662 19.5302 6.62662 21.7202L18.0966 55.0302C18.5066 56.2202 20.0266 57.2302 21.5166 57.3002L59.4866 59.0802L66.7266 4.0702V3.9602L66.7366 3.9502Z" fill="#51A7DE"/>
<path d="M29.1766 24.2604C29.0566 23.9204 28.7966 23.7604 28.4266 23.7604H23.7866C23.4766 23.7604 23.2266 24.0104 23.2266 24.3204V43.8804C23.2266 44.1904 23.4766 44.4404 23.7866 44.4404H27.2766C27.5866 44.4404 27.8366 44.1904 27.8366 43.8804V31.3204L31.9866 43.9404C32.1066 44.2804 32.3666 44.4404 32.7366 44.4404H37.3766C37.6866 44.4404 37.9366 44.1904 37.9366 43.8804V24.3204C37.9366 24.0104 37.6866 23.7604 37.3766 23.7604H33.8866C33.5766 23.7604 33.3266 24.0104 33.3266 24.3204V36.8804L29.1766 24.2604ZM49.0466 23.4004C43.7566 23.4004 41.0966 27.1504 41.0966 34.1004C41.0966 41.0504 43.7566 44.8004 49.0466 44.8004C54.3366 44.8004 56.9966 41.0504 56.9966 34.1004C56.9966 27.1504 54.3366 23.4004 49.0466 23.4004ZM49.0466 40.9604C47.1866 40.9604 46.1166 39.3604 46.1166 34.1004C46.1166 28.8404 47.1766 27.2404 49.0466 27.2404C50.9166 27.2404 51.9766 28.8404 51.9766 34.1004C51.9766 39.3604 50.9166 40.9604 49.0466 40.9604ZM63.5866 24.2304C63.5266 23.9504 63.3166 23.7604 62.9966 23.7604H59.0966C58.7166 23.7604 58.4566 24.0704 58.5466 24.4704L63.1166 43.9304C63.1866 44.2404 63.4166 44.4504 63.7666 44.4504H69.5566C69.9066 44.4504 70.1366 44.2404 70.2066 43.9304L74.7766 24.4704C74.8666 24.0704 74.6166 23.7604 74.2266 23.7604H70.3266C69.9966 23.7604 69.7966 23.9504 69.7366 24.2304L66.6666 40.3604L63.5966 24.2304H63.5866ZM83.0866 27.9304L84.6866 36.2304H81.4666L83.0966 27.9304H83.0866ZM80.1566 23.7604C79.8066 23.7604 79.5766 23.9704 79.5066 24.2804L74.9366 43.7404C74.8466 44.1404 75.0966 44.4504 75.4866 44.4504H79.3866C79.7066 44.4504 79.9166 44.2604 79.9766 43.9804L80.7466 40.0204H85.4166L86.1866 43.9804C86.2466 44.2604 86.4566 44.4504 86.7766 44.4504H90.6766C91.0566 44.4504 91.3166 44.1404 91.2266 43.7404L86.6566 24.2804C86.5866 23.9704 86.3566 23.7604 86.0066 23.7604H80.1566Z" fill="#101827"/>
</svg>
