<svg width="141" height="25" viewBox="0 0 141 25" fill="none" xmlns="http://www.w3.org/2000/svg">
<path d="M21.4453 22.9536C27.9613 17.1139 27.7976 7.75981 21.4985 2.10742C24.8976 -0.616967 32.1375 -1.22374 37.0255 3.52866C41.6885 8.06116 42.1385 15.318 38.0604 20.3555C34.0314 25.3278 26.7301 26.4966 21.4453 22.9577V22.9536Z" fill="#71A6DB"/>
<path d="M19.6428 2.1071C16.4646 4.92922 14.763 8.36626 14.7671 12.5322C14.7711 16.6942 16.4973 20.119 19.6019 22.876C15.4461 25.9424 8.2634 25.9221 3.69447 21.1696C-0.755849 16.5394 -0.980839 9.19701 3.18724 4.39167C7.33896 -0.393311 14.5789 -1.4399 19.6387 2.10302L19.6428 2.1071Z" fill="#71A6DB"/>
<path d="M20.5302 22.237C14.5092 17.8715 13.7975 7.99611 20.4607 2.77539C26.5431 6.97803 27.2425 17.1792 20.5302 22.237Z" fill="#71A6DB"/>
<path d="M49.2775 16.6707V8.5342C50.6887 8.2247 50.8728 8.28171 51.0405 8.89663C51.9649 8.66858 52.8934 8.21655 53.7851 8.28171C54.6523 8.3428 55.4826 8.93328 56.4561 9.34459C56.5952 9.23056 56.9224 8.89256 57.3151 8.65229C59.4503 7.36544 62.1785 8.59528 62.3994 11.0509C62.5671 12.8916 62.4321 14.7608 62.4321 16.6788H60.6405C60.6405 15.2861 60.6405 13.9097 60.6405 12.5332C60.6405 10.6925 60.1047 9.91471 58.8244 9.89028C57.4501 9.86177 56.767 10.7373 56.7588 12.5536C56.7506 13.9056 56.7588 15.2535 56.7588 16.6748H54.9181C54.9181 15.5467 54.9181 14.4065 54.9181 13.2703C54.9181 12.7613 54.9468 12.2482 54.9018 11.7432C54.7954 10.5215 54.1082 9.86177 53.0243 9.89028C51.9158 9.91879 51.1182 10.6681 51.0773 11.8368C51.0282 13.1929 51.065 14.549 51.0609 15.9092C51.0609 16.1413 51.0364 16.3734 51.02 16.6748H49.2734L49.2775 16.6707Z" fill="#71A6DB"/>
<path d="M139.086 9.17256V5.13281H140.808V16.7023C140.12 16.572 139.221 17.2846 138.967 16.0181C136.644 17.3294 134.603 17.1136 133.224 15.4154C131.891 13.7743 131.932 11.2006 133.314 9.58386C134.697 7.96715 136.75 7.77575 139.086 9.16849V9.17256ZM136.668 15.1792C138.12 15.1792 139.188 14.0716 139.188 12.5607C139.188 11.0662 138.108 9.91372 136.685 9.88522C135.237 9.86078 134.091 11.0662 134.12 12.5933C134.149 14.1367 135.175 15.1752 136.668 15.1752V15.1792Z" fill="#71A6DB"/>
<path d="M122.095 9.09084C122.365 7.90172 123.265 8.54922 123.984 8.40669V16.6531H122.316C122.271 16.4821 122.209 16.2378 122.148 16.0097C119.154 17.7242 116.851 17.1337 115.575 13.8555C114.904 12.1369 115.624 10.1496 116.986 9.07455C118.438 7.92615 120.054 7.93022 122.095 9.09084ZM122.275 12.532C122.262 11.0048 121.211 9.88901 119.775 9.88901C118.311 9.88901 117.223 11.0659 117.26 12.6256C117.293 14.1731 118.315 15.1912 119.82 15.179C121.301 15.1667 122.287 14.1039 122.279 12.536L122.275 12.532Z" fill="#71A6DB"/>
<path d="M70.8085 9.132C70.9925 7.84921 71.9292 8.57002 72.641 8.39083V16.678H70.9762C70.9312 16.45 70.8862 16.2016 70.8371 15.9369C68.7755 17.3214 66.6281 17.1789 65.2047 15.5988C63.7485 13.9821 63.7076 11.2781 65.1188 9.6166C66.5299 7.95102 68.6365 7.7637 70.8085 9.132ZM65.9655 12.5242C65.9491 14.0962 66.9226 15.155 68.4115 15.1794C69.9168 15.2038 70.9475 14.1898 70.9844 12.6423C71.0212 11.0786 69.9454 9.89759 68.481 9.89352C67.0453 9.88945 65.9818 11.0012 65.9655 12.5283V12.5242Z" fill="#71A6DB"/>
<path d="M93.1446 13.2782C93.5495 15.3755 95.2674 15.7868 98.008 14.4999C98.2534 14.8705 98.507 15.2574 98.8261 15.742C97.3781 16.923 95.7787 17.1836 94.0526 16.7234C92.4369 16.2917 91.3407 14.8868 91.1648 13.1561C90.8621 10.1955 92.7355 8.09008 95.5579 8.21633C97.7626 8.31406 99.6237 10.5335 99.2556 12.7081C99.2147 12.9402 98.7238 13.2294 98.4211 13.2538C97.5417 13.3271 96.6541 13.2782 95.7706 13.2782C94.9239 13.2782 94.0772 13.2782 93.1405 13.2782H93.1446ZM93.1896 11.7715H97.2717C97.0795 10.4276 96.3841 9.79639 95.1979 9.82082C94.0076 9.84526 93.3163 10.505 93.1855 11.7715H93.1896Z" fill="#71A6DB"/>
<path d="M74.4922 15.8635C74.7908 15.3667 75.0321 14.9676 75.2571 14.5929C76.0424 14.8251 76.7664 15.0979 77.5191 15.2404C78.0058 15.33 78.5662 15.3341 79.0202 15.1753C79.4006 15.0409 79.6706 14.6133 79.9937 14.316C79.6829 14.0513 79.4129 13.6685 79.053 13.5545C78.3821 13.3346 77.65 13.3142 76.9587 13.135C75.5189 12.7685 74.799 11.95 74.8235 10.7975C74.8521 9.58397 75.617 8.69213 77.0282 8.37042C78.6357 8.00798 80.1819 8.18717 81.679 9.07493C81.4172 9.57583 81.1881 10.0116 81.045 10.2844C79.8997 10.1215 78.9057 9.88533 77.9158 9.89347C77.5272 9.89347 77.1428 10.4555 76.7583 10.7609C77.1019 11.0174 77.4127 11.3799 77.7972 11.5061C78.4721 11.7219 79.2043 11.7464 79.8915 11.9256C81.1268 12.2432 81.8467 13.0373 81.9162 14.0595C81.9898 15.1631 81.319 16.1486 80.0796 16.5802C78.1653 17.2481 76.3451 16.9793 74.4963 15.8676L74.4922 15.8635Z" fill="#71A6DB"/>
<path d="M86.6513 10.0196C86.6513 11.282 86.6431 12.3938 86.6513 13.5055C86.6636 15.0082 87.2771 15.4684 88.717 15.053C88.9419 14.9878 89.1628 14.8982 89.4573 14.7924C89.6332 15.2688 89.805 15.7331 89.9972 16.2584C88.721 16.9955 87.4612 17.1787 86.1605 16.5842C84.9865 16.0466 84.8475 14.939 84.8188 13.8313C84.7861 12.6177 84.8106 11.4001 84.8106 10.1092C84.2543 10.0766 83.7635 10.044 83.2031 10.0114V8.45175C83.6981 8.41509 84.1889 8.37437 84.7861 8.32958V5.94727H86.6513V8.37844H89.535V10.0155H86.6431L86.6513 10.0196Z" fill="#71A6DB"/>
<path d="M114.408 9.22601C114.118 9.70248 113.86 10.1301 113.606 10.5454C111.439 9.66175 110.228 9.76763 109.398 10.8794C108.706 11.8079 108.731 13.3961 109.447 14.3083C110.277 15.363 111.504 15.4445 113.602 14.5526C113.864 14.968 114.13 15.3956 114.392 15.815C112.899 17.3137 109.991 17.3014 108.338 15.815C106.714 14.3531 106.526 11.3681 107.958 9.70248C109.5 7.91065 112.424 7.65003 114.408 9.22194V9.22601Z" fill="#71A6DB"/>
<path d="M126.445 8.3997C127.137 8.61146 128.061 7.77256 128.331 9.14494C129.333 8.14314 130.421 7.97618 131.685 8.46078C131.497 9.03091 131.325 9.53588 131.157 10.049C130.953 10.0286 130.818 10.0205 130.687 10.0001C129.022 9.74357 128.261 10.3666 128.225 12.077C128.2 13.2621 128.225 14.4512 128.216 15.6362C128.216 15.9661 128.188 16.2959 128.171 16.6828H126.449V8.3997H126.445Z" fill="#71A6DB"/>
<path d="M101.203 8.47256C102.999 8.3626 102.872 8.24043 103.085 9.09969C104.021 8.22007 105.073 7.9513 106.377 8.45627C106.226 8.97345 106.079 9.47435 105.944 9.93452C105.821 9.98746 105.76 10.0445 105.703 10.0404C103.559 9.7757 102.987 10.2685 102.982 12.4064C102.982 13.7951 102.982 15.1797 102.982 16.6539H101.203V8.47256Z" fill="#71A6DB"/>
</svg>
