<svg width="56" height="17" viewBox="0 0 56 17" fill="none" xmlns="http://www.w3.org/2000/svg">
<path d="M19.5678 15.9733H14.5653V8.05266C14.4467 8.00379 14.324 7.95493 14.2053 7.90606C14.009 8.25221 13.7595 8.57799 13.6286 8.94857C12.9046 10.9847 12.1929 13.0209 11.5221 15.0733C11.3094 15.7249 11.0639 16.1362 10.2704 16.0426C9.55868 15.9611 8.86333 16.1973 8.55246 15.1263C7.93073 12.9842 7.11265 10.8951 6.36002 8.78975C6.25367 8.4884 6.04915 8.21963 5.88963 7.93456C5.79555 7.96307 5.69739 7.99158 5.60331 8.02008V15.9448H0.53125V1.01976C2.27784 1.01976 4.01216 0.909805 5.72602 1.05641C6.89586 1.15822 7.43578 2.19259 7.80392 3.2066C8.48701 5.08394 9.1333 6.9735 9.79593 8.85491C9.84093 8.98115 9.90637 9.09518 10.0577 9.43725C10.3849 8.52912 10.6467 7.80018 10.9044 7.07123C11.3707 5.76809 11.8166 4.4568 12.3033 3.16587C12.9782 1.37405 13.6081 0.9546 15.4979 0.9546C16.6227 0.9546 17.7476 0.97089 18.8724 0.950528C19.4083 0.942383 19.6783 1.08084 19.6742 1.69169C19.6537 6.30563 19.6619 10.9237 19.6578 15.5376C19.6578 15.6679 19.6046 15.7942 19.5637 15.9733H19.5678Z" fill="#71A6DB"/>
<path d="M37.6501 0.958615V16.0221C36.1367 16.0221 34.6764 16.0547 33.2243 15.9855C33.0157 15.9773 32.6639 15.4765 32.6558 15.1955C32.6067 12.9923 32.6312 10.7892 32.6271 8.58201C32.6271 8.2155 32.6271 7.84899 32.6271 7.48248C32.5371 7.43361 32.4472 7.38474 32.3572 7.33588C32.1363 7.60465 31.8663 7.84899 31.7027 8.15034C30.537 10.3331 29.3876 12.5199 28.2504 14.7149C27.78 15.6231 27.0806 16.0588 26.0376 16.0344C24.7164 15.9977 23.3911 16.0262 21.9922 16.0262V1.01156H26.9538V9.51457C27.0724 9.56751 27.1869 9.62045 27.3056 9.66932C27.5551 9.33946 27.8537 9.03403 28.0418 8.6716C29.1176 6.63544 30.1975 4.59927 31.216 2.5346C31.76 1.42693 32.5658 0.909747 33.8011 0.95047C35.0568 0.991193 36.3125 0.958615 37.6419 0.958615H37.6501Z" fill="#71A6DB"/>
<path d="M39.1838 1.04021C39.4496 1.01985 39.7155 0.975058 39.9814 0.975058C43.1473 0.975058 46.3133 0.938406 49.4792 0.983202C52.6902 1.03207 54.9235 2.99086 55.1894 5.93108C55.2303 6.39125 55.1526 6.85957 55.1157 7.52335C51.6962 7.40526 48.3503 7.50299 45.0616 7.11205C42.1493 6.76998 39.5437 3.80125 39.1797 1.03614L39.1838 1.04021Z" fill="#71A6DB"/>
<path d="M45.0918 15.9859H40.0156V8.06934H54.6919C54.3564 9.84487 52.4462 11.4697 50.3643 11.653C49.0472 11.767 47.7178 11.7304 46.3925 11.7548C45.9916 11.7629 45.5867 11.7548 45.0918 11.7548V15.9859Z" fill="#71A6DB"/>
</svg>
