<svg width="31" height="31" viewBox="0 0 31 31" fill="none" xmlns="http://www.w3.org/2000/svg">
<path d="M0.8703 15.5C0.8703 23.4954 7.37259 30 15.3663 30C23.3599 30 29.8622 23.4954 29.8622 15.5C29.8622 7.50467 23.3599 1 15.3663 1C7.37259 1 0.8703 7.50467 0.8703 15.5ZM2.56139 15.5C2.56139 8.43804 8.30626 2.69157 15.3663 2.69157C22.4263 2.69157 28.1712 8.43804 28.1712 15.5C28.1712 22.562 22.4263 28.3085 15.3663 28.3085C8.30626 28.3085 2.56139 22.562 2.56139 15.5Z" fill="#181D29" stroke="#181D29" stroke-width="0.6"/>
<path fill-rule="evenodd" clip-rule="evenodd" d="M15.3622 30.001C23.3703 30.001 29.8622 23.5091 29.8622 15.501C29.8622 7.49285 23.3703 1.00098 15.3622 1.00098C7.35719 1.00098 0.867254 7.48779 0.862201 15.4916C0.862199 15.4885 0.862198 15.4854 0.862198 15.4823C0.862198 7.48256 7.34368 1.00098 15.3394 1.00098C23.3352 1.00098 29.8167 7.48256 29.8167 15.4823C29.8167 23.4803 23.3352 29.9636 15.3394 29.9636C13.8457 29.9636 12.4067 29.7377 11.0533 29.3166C11.6419 28.3547 12.5248 26.7784 12.8516 25.5204C13.0278 24.8427 13.7533 22.0785 13.7533 22.0785C14.2256 22.9788 15.6047 23.7421 17.0728 23.7421C21.4377 23.7421 24.5843 19.7252 24.5843 14.7343C24.5843 9.95059 20.6814 6.37006 15.6594 6.37006C9.41235 6.37006 6.09461 10.5667 6.09461 15.1348C6.09461 17.2571 7.22391 19.9032 9.03078 20.7452C9.30626 20.8719 9.45341 20.8154 9.51672 20.5501C9.53612 20.469 9.58778 20.2594 9.64967 20.0083C9.74062 19.6393 9.85366 19.1807 9.91882 18.9088C9.95304 18.7616 9.93593 18.6366 9.81787 18.4929C9.219 17.7672 8.74161 16.4322 8.74161 15.1879C8.74161 11.9942 11.1593 8.90313 15.2779 8.90313C18.8351 8.90313 21.3247 11.3267 21.3247 14.7942C21.3247 18.7119 19.3467 21.4264 16.7733 21.4264C15.3531 21.4264 14.2889 20.2523 14.6294 18.8095C14.7771 18.1874 14.9747 17.5477 15.1667 16.9257C15.5063 15.8261 15.8288 14.7818 15.8288 13.9881C15.8288 12.8756 15.2317 11.948 13.998 11.948C12.5436 11.948 11.3784 13.4507 11.3784 15.4652C11.3784 16.7471 11.8113 17.6148 11.8113 17.6148C11.8113 17.6148 10.3757 23.6822 10.1139 24.8119C9.823 26.0647 9.93593 27.8224 10.0626 28.9675C4.68059 26.8582 0.866074 21.6217 0.862201 15.4916C0.862199 15.4947 0.862198 15.4979 0.862198 15.501C0.862198 23.5091 7.35407 30.001 15.3622 30.001Z" fill="#181D29"/>
</svg>
