<svg width="31" height="31" viewBox="0 0 31 31" fill="none" xmlns="http://www.w3.org/2000/svg">
<path d="M0.862198 15.5002C0.862198 23.5059 7.36631 30.0189 15.3622 30.0189C23.3581 30.0189 29.8622 23.5059 29.8622 15.5002C29.8622 7.49452 23.3581 0.981445 15.3622 0.981445C7.36631 0.981445 0.862198 7.49452 0.862198 15.5002ZM2.55376 15.5002C2.55376 8.42909 8.30023 2.6752 15.3622 2.6752C22.4242 2.6752 28.1707 8.42909 28.1707 15.5002C28.1707 22.5713 22.4242 28.3252 15.3622 28.3252C8.30023 28.3252 2.55376 22.5713 2.55376 15.5002Z" fill="#181D29" stroke="#181D29" stroke-width="0.6"/>
<path d="M18.0193 11.562H9.56978V20.6904H11.9215V17.7206H16.4279L18.484 20.6904H21.1173L18.8501 17.7069C19.5542 17.5975 20.0612 17.3374 20.371 16.9269C20.6807 16.5163 20.8357 15.8594 20.8357 14.9835V14.2992C20.8357 13.7791 20.7794 13.3686 20.6808 13.0538C20.5822 12.739 20.4132 12.4653 20.1738 12.219C19.9203 11.9863 19.6387 11.8221 19.3007 11.7126C18.9627 11.6169 18.5402 11.562 18.0193 11.562ZM17.639 15.7089H11.9215V13.5738H17.639C17.9628 13.5738 18.1882 13.6285 18.3008 13.7244C18.4135 13.8201 18.484 13.998 18.484 14.2581V15.0245C18.484 15.2982 18.4135 15.4761 18.3008 15.5719C18.1882 15.6676 17.9629 15.7089 17.639 15.7089Z" fill="black"/>
<path d="M20.6657 11.1588C20.9921 11.1588 21.2569 10.8937 21.2569 10.5667C21.2569 10.2397 20.9921 9.97461 20.6657 9.97461C20.339 9.97461 20.0742 10.2397 20.0742 10.5667C20.0742 10.8937 20.339 11.1588 20.6657 11.1588Z" fill="black"/>
</svg>
