<svg width="32" height="31" viewBox="0 0 32 31" fill="none" xmlns="http://www.w3.org/2000/svg">
<g clip-path="url(#clip0_1225_26154)">
<mask id="mask0_1225_26154" style="mask-type:luminance" maskUnits="userSpaceOnUse" x="0" y="0" width="32" height="31">
<path d="M31.8633 0H0.863281V31H31.8633V0Z" fill="white"/>
</mask>
<g mask="url(#mask0_1225_26154)">
<path d="M1.84375 15.4992C1.84375 23.5049 8.35626 30.0179 16.3625 30.0179C24.3687 30.0179 30.8812 23.5049 30.8812 15.4992C30.8812 7.49354 24.3687 0.980469 16.3625 0.980469C8.35626 0.980469 1.84375 7.49354 1.84375 15.4992ZM3.5375 15.4992C3.5375 8.42811 9.29139 2.67422 16.3625 2.67422C23.4336 2.67422 29.1875 8.42811 29.1875 15.4992C29.1875 22.5703 23.4336 28.3242 16.3625 28.3242C9.29139 28.3242 3.5375 22.5703 3.5375 15.4992Z" fill="#181D29" stroke="#181D29" stroke-width="0.6"/>
<path d="M9.49607 14.7037L21.5482 10.0569C22.1076 9.85478 22.5961 10.1933 22.4148 11.0392L22.4159 11.0381L20.3638 20.7058C20.2117 21.3913 19.8044 21.5579 19.2346 21.235L16.1096 18.9319L14.6023 20.384C14.4357 20.5506 14.295 20.6912 13.9721 20.6912L14.194 17.511L19.9857 12.2787C20.2378 12.0569 19.9294 11.9319 19.5971 12.1527L12.4398 16.659L9.3544 15.6965C8.68461 15.484 8.67002 15.0267 9.49607 14.7037Z" fill="#181D29"/>
</g>
</g>
<defs>
<clipPath id="clip0_1225_26154">
<rect width="31" height="31" fill="white" transform="translate(0.863281)"/>
</clipPath>
</defs>
</svg>
