<svg width="31" height="31" viewBox="0 0 31 31" fill="none" xmlns="http://www.w3.org/2000/svg">
<path d="M0.862198 15.5002C0.862198 23.5059 7.36631 30.0189 15.3622 30.0189C23.3581 30.0189 29.8622 23.5059 29.8622 15.5002C29.8622 7.49452 23.3581 0.981445 15.3622 0.981445C7.36631 0.981445 0.862198 7.49452 0.862198 15.5002ZM2.55376 15.5002C2.55376 8.42909 8.30023 2.6752 15.3622 2.6752C22.4242 2.6752 28.1707 8.42909 28.1707 15.5002C28.1707 22.5713 22.4242 28.3252 15.3622 28.3252C8.30023 28.3252 2.55376 22.5713 2.55376 15.5002Z" fill="#181D29" stroke="#181D29" stroke-width="0.6"/>
<g clip-path="url(#clip0_2433_4201)">
<path d="M22.828 11.285C22.828 11.0319 22.6919 10.8511 22.5062 10.8537C22.3009 10.8562 22.1685 11.0311 22.169 11.2896C22.1702 12.0804 22.1694 12.8711 22.1694 13.6644C22.1552 13.6594 22.1456 13.6585 22.1431 13.6539C22.1294 13.6303 22.1169 13.6064 22.1057 13.5816C21.4703 12.1741 20.4261 11.2043 19.0114 10.6283C18.1624 10.2832 17.2773 10.1091 16.3692 10.0431C14.9232 9.93804 13.4935 10.0116 12.1033 10.4682C10.7285 10.9197 9.61687 11.7209 8.87244 12.996C8.75544 13.1961 8.65135 13.4042 8.53561 13.6186C8.48523 13.5395 8.50605 13.4693 8.50605 13.4033C8.50397 12.6899 8.50688 11.9765 8.50188 11.2631C8.50105 11.145 8.52978 11.0088 8.39239 10.9302C8.09594 10.7607 7.85405 10.902 7.85405 11.2488C7.85321 13.3613 7.8528 15.4738 7.85446 17.5862C7.85446 17.9066 7.9419 18.2055 8.09928 18.4838C8.43111 19.0711 8.95279 19.4452 9.52444 19.753C10.7373 20.4058 12.0554 20.7064 13.4056 20.8708C14.5323 21.0082 15.6631 21.0515 16.7976 20.9279C17.7694 20.822 18.7291 20.6639 19.6617 20.3688C20.4694 20.1136 21.248 19.792 21.9154 19.2451C22.5191 18.7503 22.8414 18.1365 22.8339 17.3281C22.816 15.314 22.828 13.2995 22.828 11.285ZM21.2326 17.0149C21.0577 17.6363 20.6451 18.0684 20.0577 18.3106C19.77 18.4296 19.4598 18.4741 19.1417 18.4724C17.9018 18.4653 16.6623 18.4695 15.4224 18.4695C14.0997 18.4695 12.7765 18.4716 11.4538 18.4687C10.6607 18.467 10.0357 18.1399 9.62936 17.4442C8.99443 16.3587 9.51403 14.9626 10.6744 14.5451C10.9105 14.4602 11.1707 14.4035 11.4376 14.4043C14.0418 14.4102 16.6461 14.3913 19.2499 14.4144C20.6131 14.4266 21.626 15.6163 21.2326 17.0149Z" fill="#060606"/>
<path d="M20.0743 16.4512C20.0701 16.8741 19.6866 17.2646 19.279 17.2617C18.8144 17.2588 18.4388 16.8897 18.4363 16.4327C18.4334 15.9715 18.7927 15.6184 19.2665 15.6167C19.7058 15.615 20.0788 16.0001 20.0743 16.4512Z" fill="#060606"/>
<path d="M12.2273 16.4315C12.234 16.8754 11.893 17.2416 11.4167 17.2597C10.9774 17.2765 10.6056 16.8914 10.6031 16.4332C10.6006 15.9901 10.9641 15.6222 11.4067 15.6201C11.8705 15.6176 12.2202 15.9686 12.2273 16.4315Z" fill="#060606"/>
</g>
<defs>
<clipPath id="clip0_2433_4201">
<rect width="14.9807" height="11" fill="white" transform="translate(7.85316 10.001)"/>
</clipPath>
</defs>
</svg>
