<svg width="54" height="17" viewBox="0 0 54 17" fill="none" xmlns="http://www.w3.org/2000/svg">
<path d="M50.0372 0.659321C51.203 5.9004 52.3483 11.0723 53.5304 16.3989C52.2746 16.3989 51.1252 16.4274 49.9799 16.3744C49.7795 16.3663 49.5055 16.0527 49.4277 15.8287C49.2396 15.2912 49.1455 14.717 48.9901 14.0695C47.2844 14.0695 45.5869 14.041 43.8935 14.098C43.6481 14.1061 43.3126 14.4808 43.1899 14.7577C42.3514 16.7002 42.8872 16.3744 40.7357 16.407C39.8931 16.4192 39.0546 16.407 38.0156 16.407C38.8787 14.4441 39.66 12.6605 40.4494 10.8768C41.7215 8.00172 43.0263 5.13888 44.2698 2.2516C44.7116 1.22537 45.4274 0.687827 46.5236 0.663393C47.6443 0.638959 48.7692 0.659321 50.0413 0.659321H50.0372ZM48.2702 10.7505C47.8489 8.86505 47.448 7.0773 47.0471 5.28548C46.9776 5.28548 46.9081 5.27734 46.8385 5.27734C46.1432 7.08952 45.4437 8.90578 44.7156 10.8076C45.8323 10.8076 46.7813 10.8076 47.7302 10.8076C47.8611 10.8076 47.9961 10.7831 48.2743 10.7546L48.2702 10.7505Z" fill="#71A6DB"/>
<path d="M0.0159932 0.736803C0.330951 0.708297 0.641819 0.659429 0.956777 0.659429C2.8997 0.651284 4.83853 0.651284 6.78146 0.659429C8.59349 0.667573 9.19886 1.17254 9.55063 2.96029C10.0456 5.48106 10.5405 8.00183 11.0395 10.5226C11.0722 10.6855 11.15 10.8362 11.2849 11.2027C12.8147 7.58645 14.2709 4.14534 15.7312 0.700152H20.2469C19.3716 2.69152 18.5453 4.60144 17.6986 6.49914C16.3693 9.4923 15.0031 12.4732 13.7024 15.4786C13.3997 16.1709 13.0193 16.4763 12.2503 16.4153C11.4363 16.3501 10.61 16.3379 9.80014 16.4153C8.90435 16.5048 8.56485 16.1302 8.35215 15.3035C7.40728 11.6791 6.36015 8.0792 5.43982 4.44669C5.10441 3.11504 4.3845 2.33315 3.07968 1.98293C2.0489 1.70602 1.0304 1.37209 0.0078125 1.06666C0.0078125 0.952636 0.0119029 0.842683 0.0159932 0.728658V0.736803Z" fill="#71A6DB"/>
<path d="M39.0225 1.09436C38.7526 2.2509 38.5112 3.28935 38.274 4.31557C37.3496 4.10788 36.5683 3.88798 35.7707 3.76174C35.2062 3.67214 34.6049 3.63142 34.0446 3.72101C33.2878 3.83911 32.388 3.96128 32.2244 4.90606C32.0689 5.79383 32.8747 6.0626 33.4924 6.4006C34.3841 6.88521 35.3003 7.32909 36.1552 7.87478C39.5993 10.0738 38.2208 13.9222 35.9752 15.2579C32.7438 17.18 29.3652 16.8013 25.8516 15.8484C26.1297 14.6593 26.3792 13.5842 26.5756 12.729C28.3712 12.9163 30.0646 13.124 31.7621 13.2543C32.1344 13.2828 32.5638 13.0955 32.9074 12.9C33.8973 12.3299 33.9955 11.4747 33.0629 10.8069C32.2162 10.2001 31.2427 9.77249 30.3182 9.28381C27.5695 7.82592 26.7964 5.21148 28.6657 2.91062C29.3856 2.02285 30.5678 1.37943 31.6722 0.959977C34.0732 0.0477764 36.5274 0.271754 39.0225 1.09844V1.09436Z" fill="#71A6DB"/>
<path d="M26.4283 0.655343C26.2851 1.37614 26.1788 1.96256 26.0479 2.5449C25.0866 6.7679 24.0886 10.9868 23.1846 15.222C22.9801 16.1872 22.5956 16.513 21.6262 16.4234C20.6527 16.3338 19.6669 16.403 18.5625 16.403C18.9347 14.7293 19.2742 13.19 19.626 11.6506C20.3991 8.25023 21.1967 4.85798 21.9371 1.45352C22.072 0.826381 22.3093 0.61462 22.9433 0.643126C24.0559 0.691994 25.1725 0.655343 26.4242 0.655343H26.4283Z" fill="#71A6DB"/>
</svg>
