<svg width="254" height="81" viewBox="0 0 254 81" fill="none" xmlns="http://www.w3.org/2000/svg">
<path d="M5.43501 47.9873C3.26483 42.0476 7.0837 35.6101 13.3368 34.6672L230.482 1.92589L237.905 1.56132C243.739 1.27475 248.576 6.02902 248.39 11.8676L247.545 38.3992C247.386 43.4062 243.546 47.5227 238.562 48.0295L21.5374 70.0994C16.9871 70.5621 12.7027 67.8786 11.133 63.5825L5.43501 47.9873Z" fill="white"/>
<path d="M36.0206 80.211L28.2488 68.7394L42.0695 67.7446L36.0206 80.211Z" fill="white"/>
<path d="M18.2703 46.748L26.0288 45.7377L27.4749 56.844L26.6657 56.9493L25.3188 46.6047L19.1627 47.4062L20.5097 57.7509L19.7164 57.8542L18.2703 46.748ZM34.2951 56.1334C33.0152 56.3001 31.8918 56.0161 30.9249 55.2815C29.9579 54.5468 29.3911 53.5396 29.2245 52.2597C29.0578 50.9798 29.3425 49.8617 30.0785 48.9054C30.8251 47.9476 31.8383 47.3854 33.1182 47.2188C34.4086 47.0507 35.5321 47.3347 36.4884 48.0707C37.4554 48.8054 38.0222 49.8126 38.1888 51.0925C38.3555 52.3724 38.0655 53.4912 37.3189 54.4489C36.5829 55.4053 35.575 55.9668 34.2951 56.1334ZM34.1959 55.3719C34.894 55.281 35.5027 55.0404 36.022 54.65C36.5413 54.2597 36.9231 53.7636 37.1674 53.1617C37.4104 52.5492 37.4864 51.8939 37.3955 51.1958C37.2564 50.1275 36.7924 49.2897 36.0034 48.6825C35.2143 48.0753 34.291 47.8405 33.2332 47.9783C32.5246 48.0705 31.9106 48.3118 31.3913 48.7022C30.872 49.0925 30.4909 49.5939 30.2479 50.2064C30.0036 50.8083 29.9269 51.4583 30.0178 52.1564C30.1555 53.2142 30.6196 54.0519 31.41 54.6697C32.199 55.2769 33.1276 55.511 34.1959 55.3719ZM45.9234 45.7289L46.0164 46.4429L42.5893 46.8891L43.6119 54.7428L42.8503 54.842L41.8277 46.9883L38.4165 47.4325L38.3236 46.7185L45.9234 45.7289ZM52.2374 53.7972C50.9575 53.9639 49.8341 53.6799 48.8672 52.9452C47.9002 52.2106 47.3334 51.2034 47.1668 49.9235C47.0001 48.6436 47.2848 47.5255 48.0208 46.5691C48.7674 45.6114 49.7806 45.0492 51.0605 44.8826C52.3509 44.7145 53.4743 44.9985 54.4307 45.7345C55.3977 46.4692 55.9645 47.4764 56.1311 48.7563C56.2978 50.0361 56.0078 51.1549 55.2612 52.1127C54.5252 53.0691 53.5173 53.6306 52.2374 53.7972ZM52.1382 53.0356C52.8363 52.9447 53.445 52.7041 53.9643 52.3138C54.4836 51.9235 54.8654 51.4274 55.1097 50.8255C55.3527 50.213 55.4287 49.5577 55.3378 48.8596C55.1987 47.7913 54.7347 46.9535 53.9456 46.3463C53.1566 45.7391 52.2333 45.5043 51.1755 45.6421C50.4668 45.7343 49.8529 45.9756 49.3336 46.3659C48.8143 46.7563 48.4332 47.2577 48.1902 47.8702C47.9459 48.4721 47.8692 49.1221 47.9601 49.8202C48.0978 50.8779 48.5619 51.7157 49.3522 52.3335C50.1413 52.9407 51.0699 53.1747 52.1382 53.0356ZM58.976 44.0294L64.2594 43.3414L65.3749 51.9091L64.6134 52.0083L63.5866 44.1229L59.7312 44.6249L59.837 49.7743C59.8661 50.8247 59.7073 51.5876 59.3605 52.063C59.0136 52.5384 58.4224 52.8305 57.5868 52.9393L57.444 52.9579L57.349 52.2281L57.5235 52.2054C58.1052 52.1296 58.5136 51.9205 58.7487 51.5779C58.993 51.2234 59.1085 50.6651 59.0954 49.9031L58.976 44.0294ZM74.0759 50.7762L70.1137 47.1131L68.6223 47.3073L69.1574 51.4166L68.38 51.5179L67.2644 42.9502L68.0418 42.8489L68.5273 46.5775L70.0346 46.3812L72.6747 42.2457L73.6267 42.1218L70.7485 46.6594L75.0437 50.6502L74.0759 50.7762ZM81.8072 41.0566L82.2515 40.9987L83.3671 49.5664L82.6372 49.6615L81.7076 42.5217L77.0365 50.3907L76.5764 50.4506L75.4608 41.8829L76.2065 41.7858L77.132 48.8938L81.8072 41.0566ZM89.8781 44.6042L89.781 43.8585L94.7471 43.2119L94.8442 43.9576L89.8781 44.6042ZM107.462 37.7162L108.224 37.617L109.339 46.1847L108.578 46.2838L108.049 42.2221L102.622 42.9287L103.151 46.9904L102.39 47.0895L101.274 38.5219L102.036 38.4227L102.525 42.183L107.952 41.4764L107.462 37.7162ZM118.711 36.2515L119.345 36.1689L120.461 44.7366L119.794 44.8233L119.473 42.9773C119.175 43.6615 118.722 44.2262 118.113 44.6712C117.514 45.1148 116.813 45.389 116.009 45.4937C114.751 45.6575 113.648 45.3708 112.703 44.6334C111.755 43.8854 111.199 42.8768 111.034 41.6075C110.869 40.3383 111.149 39.2261 111.874 38.2711C112.598 37.3055 113.59 36.7408 114.848 36.5769C115.652 36.4723 116.401 36.563 117.094 36.8492C117.797 37.1235 118.38 37.5531 118.843 38.1382L118.711 36.2515ZM115.958 44.7259C116.645 44.6364 117.243 44.3971 117.752 44.0082C118.271 43.6179 118.648 43.1225 118.882 42.5219C119.125 41.9094 119.201 41.2541 119.11 40.556C118.971 39.4877 118.512 38.6492 117.733 38.0407C116.955 37.4321 116.042 37.1959 114.995 37.3323C113.948 37.4686 113.121 37.9366 112.516 38.7362C111.919 39.5238 111.689 40.4465 111.827 41.5042C111.965 42.562 112.424 43.4004 113.204 44.0196C113.993 44.6268 114.911 44.8622 115.958 44.7259ZM131.946 34.5282L132.723 34.427L133.839 42.9947L123.446 44.3478L122.331 35.7801L123.092 35.681L124.113 43.5188L128.175 42.9899L127.154 35.1521L127.9 35.055L128.92 42.8928L132.966 42.3661L131.946 34.5282ZM143.207 33.0619L143.842 32.9793L144.957 41.547L144.291 41.6337L143.97 39.7877C143.672 40.4719 143.218 41.0366 142.609 41.4816C142.011 41.9252 141.31 42.1994 140.506 42.3041C139.247 42.4679 138.145 42.1812 137.199 41.4438C136.252 40.6958 135.696 39.6872 135.53 38.4179C135.365 37.1487 135.645 36.0365 136.37 35.0815C137.095 34.1159 138.086 33.5512 139.345 33.3873C140.149 33.2827 140.897 33.3734 141.591 33.6596C142.293 33.9339 142.876 34.3635 143.34 34.9486L143.207 33.0619ZM140.454 41.5363C141.142 41.4468 141.74 41.2075 142.248 40.8186C142.768 40.4283 143.144 39.9329 143.378 39.3323C143.621 38.7198 143.697 38.0645 143.606 37.3664C143.467 36.2981 143.008 35.4596 142.23 34.8511C141.451 34.2425 140.539 34.0063 139.491 34.1427C138.444 34.279 137.618 34.747 137.012 35.5466C136.415 36.3342 136.186 37.2569 136.324 38.3146C136.461 39.3724 136.92 40.2108 137.7 40.83C138.489 41.4372 139.407 41.6726 140.454 41.5363ZM151.197 32.0216L158.209 31.1085L159.325 39.6762L158.547 39.7774L157.525 31.9237L152.067 32.6344L153.09 40.4881L152.312 40.5893L151.197 32.0216ZM165.626 29.9653C166.885 29.8014 167.982 30.0889 168.917 30.8276C169.852 31.5664 170.403 32.5757 170.57 33.8556C170.736 35.1354 170.462 36.2522 169.747 37.2058C169.032 38.1594 168.046 38.7182 166.787 38.882C166.004 38.984 165.268 38.9024 164.577 38.6374C163.897 38.3709 163.321 37.9565 162.85 37.3939L163.478 42.2172L162.7 42.3184L161.19 30.7204L161.761 30.646L162.164 32.4975C162.473 31.8119 162.926 31.2473 163.525 30.8036C164.132 30.3481 164.833 30.0686 165.626 29.9653ZM166.624 38.1287C167.682 37.991 168.509 37.5283 169.106 36.7407C169.702 35.9531 169.931 35.0251 169.792 33.9568C169.653 32.8885 169.194 32.05 168.416 31.4414C167.637 30.8329 166.719 30.5974 165.662 30.7351C164.625 30.8701 163.804 31.3374 163.198 32.137C162.591 32.926 162.356 33.8494 162.494 34.9071C162.631 35.9648 163.096 36.8026 163.886 37.4204C164.675 38.0276 165.588 38.2637 166.624 38.1287ZM177.167 37.5305C175.887 37.6971 174.764 37.4131 173.797 36.6785C172.83 35.9438 172.263 34.9366 172.097 33.6567C171.93 32.3769 172.215 31.2588 172.951 30.3024C173.697 29.3446 174.71 28.7824 175.99 28.6158C177.281 28.4478 178.404 28.7318 179.361 29.4678C180.327 30.2024 180.894 31.2097 181.061 32.4895C181.228 33.7694 180.938 34.8882 180.191 35.8459C179.455 36.8023 178.447 37.3638 177.167 37.5305ZM177.068 36.7689C177.766 36.678 178.375 36.4374 178.894 36.0471C179.413 35.6568 179.795 35.1606 180.04 34.5587C180.282 33.9462 180.359 33.2909 180.268 32.5928C180.129 31.5245 179.664 30.6867 178.875 30.0795C178.086 29.4723 177.163 29.2376 176.105 29.3753C175.397 29.4676 174.783 29.7089 174.263 30.0992C173.744 30.4895 173.363 30.9909 173.12 31.6034C172.876 32.2053 172.799 32.8553 172.89 33.5534C173.028 34.6112 173.492 35.4489 174.282 36.0667C175.071 36.6739 176 36.908 177.068 36.7689ZM192.505 31.0156C192.616 31.8724 192.52 32.6647 192.217 33.3926C191.912 34.11 191.435 34.6992 190.785 35.1603C190.146 35.62 189.389 35.9176 188.514 36.0531L188.842 38.5758L188.065 38.677L187.736 36.1543C186.401 36.3067 185.251 36.0314 184.289 35.3285C183.324 34.6151 182.758 33.6078 182.588 32.3068C182.419 31.0058 182.709 29.887 183.458 28.9504C184.217 28.0018 185.256 27.4309 186.575 27.2376L186.265 24.8577L187.043 24.7564L187.353 27.1364C188.688 26.984 189.839 27.2698 190.804 27.9939C191.768 28.7073 192.335 29.7146 192.505 31.0156ZM183.348 32.1918C183.487 33.2601 183.955 34.0919 184.754 34.6871C185.551 35.2718 186.511 35.5017 187.635 35.3769L186.676 28.015C185.558 28.1822 184.689 28.6556 184.07 29.4354C183.451 30.2152 183.21 31.134 183.348 32.1918ZM188.412 35.2756C189.151 35.1687 189.786 34.9193 190.316 34.5276C190.856 34.1346 191.249 33.6424 191.495 33.051C191.751 32.4583 191.833 31.8076 191.741 31.0989C191.603 30.0412 191.135 29.2147 190.337 28.6194C189.539 28.0242 188.578 27.789 187.454 27.9138L188.412 35.2756ZM202.584 29.6547C202.594 29.7288 202.602 29.8299 202.608 29.9583L194.833 30.9705C194.963 31.6314 195.214 32.201 195.588 32.6794C195.973 33.1563 196.449 33.5085 197.017 33.7358C197.583 33.9525 198.188 34.0189 198.834 33.9348C199.532 33.8439 200.129 33.5994 200.626 33.2013C201.132 32.7912 201.504 32.264 201.743 31.6198L202.568 31.5124C202.288 32.4201 201.835 33.1514 201.208 33.7064C200.58 34.2507 199.821 34.5807 198.933 34.6964C197.695 34.8576 196.609 34.5687 195.674 33.83C194.737 33.0806 194.185 32.066 194.019 30.7862C193.855 29.5275 194.13 28.4213 194.845 27.4677C195.569 26.5021 196.545 25.9394 197.772 25.7797C199.009 25.6185 200.08 25.9094 200.983 26.6523C201.887 27.3952 202.421 28.396 202.584 29.6547ZM197.869 26.5254C196.917 26.6493 196.153 27.0608 195.577 27.7596C195 28.4479 194.726 29.2743 194.754 30.2386L201.767 29.3255C201.663 28.855 201.484 28.4319 201.231 28.0561C200.987 27.6684 200.693 27.3517 200.349 27.1061C200.005 26.8604 199.617 26.6904 199.185 26.596C198.762 26.4897 198.324 26.4662 197.869 26.5254ZM209.068 33.3768C207.82 33.5393 206.718 33.2525 205.761 32.5165C204.803 31.7699 204.242 30.762 204.077 29.4927C203.91 28.2128 204.189 27.0954 204.915 26.1404C205.651 25.1841 206.648 24.6239 207.907 24.46C208.869 24.3347 209.744 24.4844 210.531 24.909C211.327 25.3217 211.923 25.9378 212.32 26.7574L211.543 26.8586C211.173 26.2506 210.674 25.8046 210.046 25.5207C209.426 25.2249 208.746 25.1252 208.006 25.2216C206.969 25.3566 206.154 25.8232 205.558 26.6214C204.962 27.409 204.732 28.3317 204.87 29.3894C205.006 30.4366 205.464 31.2697 206.244 31.8889C207.035 32.5067 207.943 32.7488 208.969 32.6152C209.699 32.5202 210.326 32.2556 210.85 31.8216C211.384 31.3757 211.76 30.7995 211.98 30.0932L212.774 29.9899C212.581 30.9078 212.154 31.6734 211.491 32.2867C210.828 32.8895 210.02 33.2528 209.068 33.3768ZM218.891 32.0977C217.643 32.2602 216.541 31.9735 215.584 31.2374C214.627 30.4909 214.065 29.4829 213.9 28.2136C213.733 26.9338 214.013 25.8163 214.738 24.8614C215.474 23.905 216.471 23.3449 217.73 23.181C218.693 23.0556 219.567 23.2053 220.354 23.6299C221.15 24.0426 221.747 24.6587 222.144 25.4783L221.366 25.5795C220.997 24.9715 220.498 24.5256 219.869 24.2417C219.25 23.9458 218.57 23.8461 217.829 23.9425C216.793 24.0775 215.977 24.5441 215.382 25.3423C214.785 26.1299 214.556 27.0526 214.693 28.1103C214.83 29.1575 215.288 29.9907 216.067 30.6098C216.858 31.2276 217.766 31.4697 218.792 31.3361C219.522 31.2411 220.149 30.9766 220.673 30.5426C221.207 30.0966 221.584 29.5205 221.804 28.8142L222.597 28.7109C222.405 29.6287 221.977 30.3943 221.315 31.0076C220.651 31.6104 219.843 31.9737 218.891 32.0977ZM230.242 21.7294L230.686 21.6715L231.802 30.2392L231.072 30.3342L230.142 23.1945L225.471 31.0635L225.011 31.1234L223.895 22.5557L224.641 22.4586L225.567 29.5666L230.242 21.7294ZM235.766 21.01L239.447 20.5308L240.561 29.0826L239.799 29.1817L239.347 25.7071L236.665 26.0562L234.835 29.8442L233.978 29.9558L235.828 26.0684C235.19 26.0439 234.646 25.835 234.197 25.4417C233.759 25.047 233.498 24.5324 233.415 23.8977C233.319 23.1573 233.488 22.5168 233.923 21.976C234.369 21.434 234.983 21.112 235.766 21.01ZM236.344 25.3235L239.247 24.9455L238.785 21.3915L235.929 21.7633C235.347 21.8391 234.898 22.0643 234.581 22.4391C234.264 22.8138 234.14 23.2656 234.209 23.7944C234.276 24.3127 234.506 24.7184 234.9 25.0114C235.302 25.2925 235.783 25.3965 236.344 25.3235Z" fill="#181D29"/>
</svg>
