<svg width="29" height="29" viewBox="0 0 29 29" fill="none" xmlns="http://www.w3.org/2000/svg">
<path d="M0 29L2.03845 21.553C0.780581 19.3732 0.119625 16.9022 0.120833 14.3683C0.124458 6.44646 6.5709 0 14.4915 0C18.3352 0.00120833 21.9433 1.49833 24.6572 4.21467C27.3699 6.931 28.8634 10.5415 28.8622 14.3816C28.8586 22.3046 22.4121 28.7511 14.4915 28.7511C12.0869 28.7499 9.71739 28.1469 7.61852 27.0014L0 29ZM7.97136 24.3999C9.99652 25.6022 11.9298 26.3223 14.4867 26.3235C21.0697 26.3235 26.4322 20.9658 26.4359 14.3792C26.4383 7.77925 21.1011 2.42875 14.4963 2.42633C7.90852 2.42633 2.54958 7.78408 2.54716 14.3695C2.54595 17.058 3.33378 19.0711 4.65691 21.1772L3.44978 25.5853L7.97136 24.3999ZM21.7306 17.7975C21.6412 17.6477 21.402 17.5583 21.0419 17.3783C20.683 17.1982 18.9176 16.3294 18.5877 16.2098C18.2591 16.0902 18.0198 16.0298 17.7794 16.3898C17.5401 16.7487 16.8514 17.5583 16.6423 17.7975C16.4333 18.0368 16.223 18.067 15.8642 17.887C15.5053 17.7069 14.3477 17.3287 12.9763 16.1047C11.9093 15.1525 11.1879 13.9768 10.9789 13.6167C10.7699 13.2578 10.9571 13.0633 11.136 12.8845C11.2979 12.7238 11.4948 12.4652 11.6749 12.2549C11.8573 12.0471 11.9166 11.8973 12.0374 11.6568C12.157 11.4175 12.0978 11.2073 12.0072 11.0273C11.9166 10.8484 11.1988 9.08063 10.9004 8.36167C10.6079 7.66204 10.3119 7.75629 10.092 7.74542L9.40323 7.73333C9.16398 7.73333 8.7749 7.82275 8.44623 8.18283C8.11757 8.54292 7.18957 9.4105 7.18957 11.1783C7.18957 12.9461 8.47644 14.6535 8.65527 14.8927C8.83531 15.132 11.1867 18.7594 14.7888 20.3145C15.6455 20.6843 16.3149 20.9054 16.8357 21.0709C17.696 21.344 18.479 21.3053 19.0977 21.2135C19.7876 21.1108 21.2219 20.3447 21.5216 19.5061C21.8212 18.6663 21.8212 17.9474 21.7306 17.7975Z" fill="#181D29"/>
</svg>
