<?xml version="1.0" encoding="UTF-8"?>
<svg id="_Слой_2" data-name=" Слой 2" xmlns="http://www.w3.org/2000/svg" viewBox="0 0 91.25 63.69">
  <defs>
    <style>
      .cls-1 {
        fill: #8fb9e3;
      }

      .cls-1, .cls-2, .cls-3, .cls-4 {
        stroke-width: 0px;
      }

      .cls-2 {
        fill: #51a7de;
      }

      .cls-3 {
        fill: #6ac2ee;
      }

      .cls-4 {
        fill: #101827;
      }
    </style>
  </defs>
  <g id="_Слой_1-2" data-name=" Слой 1-2">
    <g>
      <path class="cls-1" d="M68.34,3.6l-1.6.36v.11l-7.24,55.01,2.89.14c2.4.11,4.58-1.01,4.82-2.54l7.4-48.1c.55-3.57-2.3-5.85-6.26-4.97h-.01Z"/>
      <path class="cls-3" d="M18.1,55.03L6.64,21.72c-.76-2.19.15-4.37,2.09-4.8L66.74,3.95c.29-2.62-1.33-4.38-3.63-3.86L1.34,13.89c-1.22.27-1.68,1.92-1.07,3.65l15.15,42.4c.28.78,1.2,1.44,2.07,1.49l39,2.25c1.3.08,2.47-.61,2.59-1.56l.4-3.06-37.97-1.78c-1.49-.07-3.01-1.07-3.42-2.27v.02Z"/>
      <path class="cls-2" d="M66.74,3.95L8.72,16.92c-1.94.43-2.84,2.61-2.09,4.8l11.47,33.31c.41,1.19,1.93,2.2,3.42,2.27l37.97,1.78,7.24-55.01v-.11h0Z"/>
      <path class="cls-4" d="M29.18,24.26c-.12-.34-.38-.5-.75-.5h-4.64c-.31,0-.56.25-.56.56v19.56c0,.31.25.56.56.56h3.49c.31,0,.56-.25.56-.56v-12.56l4.15,12.62c.12.34.38.5.75.5h4.64c.31,0,.56-.25.56-.56v-19.56c0-.31-.25-.56-.56-.56h-3.49c-.31,0-.56.25-.56.56v12.56s-4.15-12.62-4.15-12.62ZM49.05,23.4c-5.29,0-7.95,3.75-7.95,10.7s2.66,10.7,7.95,10.7,7.95-3.75,7.95-10.7-2.66-10.7-7.95-10.7ZM49.05,40.96c-1.86,0-2.93-1.6-2.93-6.86s1.06-6.86,2.93-6.86,2.93,1.6,2.93,6.86-1.06,6.86-2.93,6.86ZM63.59,24.23c-.06-.28-.27-.47-.59-.47h-3.9c-.38,0-.64.31-.55.71l4.57,19.46c.07.31.3.52.65.52h5.79c.35,0,.58-.21.65-.52l4.57-19.46c.09-.4-.16-.71-.55-.71h-3.9c-.33,0-.53.19-.59.47l-3.07,16.13-3.07-16.13h0ZM83.09,27.93l1.6,8.3h-3.22l1.63-8.3h0ZM80.16,23.76c-.35,0-.58.21-.65.52l-4.57,19.46c-.09.4.16.71.55.71h3.9c.32,0,.53-.19.59-.47l.77-3.96h4.67l.77,3.96c.06.28.27.47.59.47h3.9c.38,0,.64-.31.55-.71l-4.57-19.46c-.07-.31-.3-.52-.65-.52,0,0-5.85,0-5.85,0Z"/>
    </g>
  </g>
</svg>